<?xml version="1.0" standalone="no"?>
<!DOCTYPE svg PUBLIC "-//W3C//DTD SVG 20010904//EN"
 "http://www.w3.org/TR/2001/REC-SVG-20010904/DTD/svg10.dtd">
<svg version="1.0" xmlns="http://www.w3.org/2000/svg"
 width="600.000000pt" height="600.000000pt" viewBox="0 0 600.000000 600.000000"
 preserveAspectRatio="xMidYMid meet">
<metadata>
Created by potrace 1.11, written by Peter Selinger 2001-2013
</metadata>
<g transform="translate(0.000000,600.000000) scale(0.100000,-0.100000)"
fill="#000000" stroke="none">
<path d="M17 5989 c-23 -13 -25 -89 -2 -89 27 0 69 27 93 59 22 31 22 31 2 31
-12 0 -35 -7 -51 -16 -17 -8 -33 -13 -36 -11 -2 3 5 8 16 12 23 7 29 25 9 25
-7 0 -21 -5 -31 -11z m48 -49 c-27 -12 -43 -12 -25 0 8 5 22 9 30 9 10 0 8 -3
-5 -9z"/>
<path d="M140 5979 c-27 -29 -50 -59 -50 -67 -1 -4 -21 -23 -45 -42 -31 -24
-45 -42 -45 -59 0 -23 1 -23 18 -8 10 10 22 17 27 17 10 0 109 71 113 82 2 4
15 8 28 8 14 0 23 4 19 9 -7 12 43 51 65 51 10 0 20 7 23 15 9 22 -132 17
-153 -6z"/>
<path d="M2787 5967 c3 -18 10 -40 15 -50 5 -9 7 -21 4 -25 -9 -15 81 -423 97
-438 4 -4 14 1 21 12 8 10 18 15 23 11 4 -5 0 -14 -10 -21 -21 -16 -22 -26 -2
-26 18 0 19 -12 3 -28 -6 -6 -8 -15 -3 -19 4 -5 10 -2 12 5 8 20 23 13 23 -11
0 -16 -6 -23 -20 -24 -11 -1 -20 2 -20 7 0 5 -10 14 -21 21 -21 11 -21 10 -14
-27 5 -22 10 -55 11 -74 13 -157 21 -197 36 -182 8 8 8 15 -1 26 -7 8 -11 33
-10 55 2 22 0 43 -4 47 -14 14 -7 43 12 49 25 7 34 32 15 39 -8 3 -14 -1 -14
-9 0 -7 -4 -17 -10 -20 -6 -4 -10 5 -10 19 0 18 5 26 18 26 10 0 22 4 28 10 6
6 24 4 49 -4 40 -14 60 -12 50 5 -10 16 4 10 25 -11 26 -26 25 -28 -5 -22 -15
2 -25 0 -25 -7 0 -6 5 -11 10 -11 6 0 10 -5 10 -11 0 -6 -13 -1 -29 10 -16 12
-32 21 -36 21 -12 0 7 -65 21 -73 21 -12 17 -23 -8 -22 -13 0 -24 -4 -25 -10
-2 -5 7 -10 20 -10 18 0 21 -5 19 -25 -3 -24 -2 -24 15 -6 13 13 15 20 6 23
-26 9 -12 22 17 17 26 -6 30 -4 30 16 0 18 -4 21 -24 16 -16 -4 -26 -1 -30 10
-4 11 -1 14 13 9 12 -3 21 0 25 10 3 8 10 15 17 15 6 0 9 -7 5 -15 -7 -20 3
-19 42 5 42 26 42 26 29 -10 -11 -28 -37 -50 -37 -30 0 6 -4 10 -9 10 -14 0
-10 -48 5 -54 8 -3 14 -13 14 -23 0 -10 -4 -14 -8 -8 -16 22 -54 37 -65 26 -8
-8 -5 -11 11 -11 13 0 22 -6 22 -15 0 -9 6 -12 15 -9 8 4 15 2 15 -4 0 -6 -5
-12 -12 -14 -7 -3 -8 -9 -2 -19 5 -8 9 -17 9 -21 0 -15 13 -18 18 -3 4 8 2 15
-3 15 -16 0 -12 27 7 45 13 14 14 21 5 36 -15 23 -15 29 -2 29 6 0 10 -7 10
-15 0 -8 4 -15 9 -15 5 0 11 -10 13 -22 2 -12 9 -23 17 -26 8 -3 11 0 8 5 -6
10 22 38 62 61 20 12 25 11 38 -7 8 -12 21 -21 29 -21 8 0 14 -4 14 -10 0 -16
-15 -12 -35 10 -18 20 -45 27 -45 12 0 -4 -10 -12 -22 -17 -23 -10 -24 -17
-16 -94 5 -39 25 -36 26 4 1 19 -2 35 -6 35 -4 0 -8 10 -9 21 -1 12 1 19 4 15
3 -3 12 -1 19 5 17 14 34 3 34 -22 0 -23 8 -24 34 -4 27 21 35 19 29 -6 -3
-12 -21 -28 -41 -36 -30 -13 -33 -17 -27 -41 4 -15 7 -37 7 -50 0 -24 7 -21
45 15 18 17 16 28 -2 13 -9 -7 -19 -9 -23 -5 -4 4 -1 10 6 12 6 3 12 9 12 15
0 6 -6 5 -15 -2 -9 -7 -18 -10 -21 -7 -10 10 7 27 27 27 13 0 18 4 13 12 -4 7
-3 8 5 4 6 -4 14 0 17 8 3 9 12 16 20 16 8 0 14 8 14 18 0 13 2 14 9 3 5 -7
14 -10 20 -7 7 4 10 2 9 -5 -2 -7 6 -15 17 -17 30 -6 43 -22 17 -22 -26 0 -27
-6 -8 -26 18 -18 26 -18 26 0 0 22 19 30 35 16 12 -10 15 -10 15 2 0 8 -12 19
-27 24 l-28 11 28 0 c16 0 31 -6 34 -13 3 -8 9 -11 14 -8 5 3 9 -2 9 -11 0
-11 5 -15 15 -11 8 3 15 1 15 -4 0 -6 5 -10 10 -10 18 0 11 18 -10 25 -23 7
-27 45 -5 45 9 0 12 -6 9 -17 -3 -10 2 -7 10 7 l15 25 1 -32 c0 -36 2 -38 48
-48 20 -4 32 -3 32 4 0 6 -7 11 -16 11 -8 0 -13 4 -10 9 4 5 16 4 30 -2 17 -8
22 -15 15 -23 -7 -8 -6 -14 1 -19 5 -3 13 1 16 9 3 9 9 14 13 11 4 -2 20 3 36
11 18 9 32 11 38 5 5 -5 17 -7 26 -4 13 5 12 2 -4 -16 l-20 -23 26 -21 c14
-12 39 -32 55 -45 26 -21 27 -23 7 -18 -24 4 -31 -8 -13 -19 6 -4 18 -1 27 7
9 7 18 12 20 11 1 -2 6 -3 10 -3 3 0 -13 14 -35 30 -23 17 -42 36 -42 43 1 6
9 2 19 -10 23 -27 39 -29 56 -7 9 13 16 14 33 5 11 -6 28 -8 36 -5 27 10 9
-20 -30 -51 -38 -30 -45 -50 -14 -40 22 7 27 -9 8 -22 -28 -18 -62 -63 -47
-63 8 0 25 16 38 35 13 19 30 35 37 35 10 0 13 7 8 24 -4 17 1 31 16 46 12 12
24 19 27 16 8 -8 34 21 31 35 -2 7 5 15 16 17 11 2 16 0 12 -7 -4 -6 -2 -11 3
-11 15 0 14 12 -5 38 -20 28 -10 43 11 16 25 -34 28 -67 8 -81 -11 -9 -19 -10
-21 -3 -2 5 -8 8 -13 4 -5 -3 -3 -17 5 -32 7 -15 11 -32 9 -38 -4 -12 42 -54
58 -54 20 0 7 18 -16 24 -21 5 -24 10 -15 26 13 25 13 30 -5 30 -27 0 -16 25
16 37 27 10 30 15 20 27 -7 8 -10 19 -7 24 8 13 -17 62 -31 62 -7 0 -13 5 -13
10 0 6 7 10 15 10 8 0 15 -5 15 -12 0 -8 7 -6 18 5 15 15 15 19 2 27 -8 5 -12
11 -9 14 3 3 13 0 23 -7 16 -12 15 -14 -4 -35 -12 -12 -18 -27 -15 -32 8 -13
45 -13 45 0 0 6 -5 10 -12 10 -6 0 -8 3 -5 7 4 3 15 -1 25 -10 10 -10 21 -15
23 -12 3 2 5 -5 6 -16 2 -17 0 -18 -14 -3 -15 14 -18 14 -37 -5 l-20 -21 22
-22 c17 -17 24 -20 34 -10 15 15 28 16 28 1 0 -6 6 -17 14 -25 8 -8 19 -14 25
-14 15 0 14 17 -1 23 -10 4 -10 7 0 18 10 11 12 10 12 -5 0 -10 6 -16 13 -13
6 2 12 12 12 23 0 20 -31 27 -51 12 -7 -5 -14 -3 -18 7 -4 12 1 15 22 13 36
-3 52 8 52 35 1 20 2 20 11 5 7 -12 6 -24 -1 -38 -8 -16 -8 -20 4 -20 8 0 17
-6 19 -12 4 -9 8 -10 14 -3 4 6 21 11 36 12 23 1 26 -2 16 -13 -6 -8 -19 -14
-29 -14 -28 0 -31 -12 -7 -25 18 -9 24 -8 34 4 10 13 11 12 6 -9 -5 -21 -3
-23 8 -12 7 6 13 28 13 47 0 23 5 35 14 35 8 0 12 -6 8 -15 -9 -24 4 -48 19
-35 9 8 15 8 20 0 8 -13 52 -13 60 0 3 5 13 6 21 3 9 -3 20 0 24 8 5 7 12 11
15 7 12 -12 -36 -50 -56 -45 -11 3 -23 -2 -28 -11 -9 -16 -11 -15 -24 2 -10
13 -16 15 -21 7 -4 -6 0 -14 9 -17 12 -5 13 -9 4 -20 -15 -18 0 -18 20 0 11
10 21 12 31 5 13 -8 13 -10 0 -19 -12 -8 -11 -10 8 -10 17 0 22 -6 23 -27 0
-27 1 -27 9 -5 13 31 34 28 28 -3 -3 -14 -1 -28 3 -31 5 -3 9 2 9 11 0 9 6 15
13 12 6 -2 20 5 30 16 20 24 21 28 5 25 -6 -2 -23 17 -36 41 -17 29 -20 42
-11 39 8 -3 14 -10 14 -17 0 -12 23 -31 38 -31 4 0 7 9 7 19 0 26 16 35 37 21
17 -10 16 -10 -2 -8 -14 2 -19 -2 -17 -14 1 -9 -3 -20 -9 -24 -8 -5 -4 -13 12
-26 15 -11 18 -16 7 -12 -13 5 -18 1 -18 -14 0 -12 -5 -24 -10 -27 -15 -9 -2
-25 16 -18 8 3 23 -2 34 -12 20 -18 45 -12 36 10 -5 15 20 28 36 19 5 -3 0
-15 -12 -26 -11 -11 -19 -25 -17 -31 5 -15 64 -20 72 -7 9 14 45 12 45 -2 0
-9 3 -9 13 1 10 10 8 15 -7 27 -11 7 -17 17 -13 21 4 3 15 -1 25 -10 25 -23
35 -21 27 4 -5 14 -3 19 3 15 6 -3 14 -1 18 5 3 6 0 15 -7 20 -7 4 -10 11 -6
15 10 10 38 -16 30 -29 -4 -6 7 -7 31 -3 23 4 36 3 36 -4 0 -5 -4 -10 -10 -10
-5 0 -10 -7 -10 -15 0 -21 -16 -19 -39 6 -18 20 -40 11 -26 -11 3 -5 2 -10 -2
-10 -5 0 -7 -16 -5 -35 4 -30 7 -34 19 -24 10 9 11 14 2 20 -7 4 -9 14 -6 23
7 18 37 22 37 5 0 -5 5 -7 10 -4 6 3 13 -1 16 -9 3 -9 13 -16 21 -16 10 0 13
6 9 15 -18 44 -17 49 3 26 12 -13 25 -21 28 -17 4 4 1 11 -7 16 -8 5 -11 12
-7 16 4 4 12 3 18 -3 6 -6 18 -9 26 -6 9 4 23 -3 33 -16 16 -22 17 -23 61 -7
l44 16 -42 -6 c-39 -5 -43 -3 -57 24 -14 28 -14 30 3 35 14 3 17 -1 13 -18 -3
-19 0 -22 30 -21 18 1 38 5 45 9 14 9 27 -9 17 -25 -4 -6 -3 -8 4 -4 13 8 75
-28 65 -37 -3 -4 -1 -7 5 -7 5 0 12 6 15 13 3 9 8 9 21 -2 9 -8 20 -11 23 -7
10 10 -14 24 -61 37 -21 6 -35 13 -32 16 3 3 -2 11 -11 18 -10 7 -12 14 -6 18
6 4 22 -4 36 -17 19 -18 28 -21 38 -12 9 8 10 8 4 -3 -5 -9 0 -8 18 4 17 11
27 13 32 5 3 -6 11 -8 16 -5 12 8 44 -24 34 -33 -4 -4 -10 -1 -12 6 -6 16 -20
15 -26 -2 -4 -11 2 -14 28 -11 l34 3 -3 -40 c-4 -39 -4 -39 16 -22 11 11 15
20 9 22 -15 5 -14 32 2 32 7 0 18 -9 25 -21 11 -17 11 -23 0 -36 -12 -15 -11
-15 9 -2 15 9 19 17 13 23 -6 6 -10 13 -10 17 0 10 54 -3 62 -15 4 -6 10 -7
15 -3 4 5 1 12 -7 17 -20 13 -6 23 20 15 16 -5 19 -10 11 -18 -16 -16 -14 -25
7 -23 9 0 17 -6 17 -14 0 -8 -8 -14 -17 -14 -10 1 -18 -3 -18 -8 0 -5 -9 -6
-20 -3 -11 3 -20 2 -20 -3 0 -6 18 -8 43 -6 60 7 66 10 60 34 -3 12 1 28 10
38 9 9 16 20 16 25 1 16 20 41 27 35 4 -4 2 -13 -3 -20 -6 -7 -13 -22 -15 -33
-3 -11 -9 -28 -13 -37 -4 -11 -3 -18 4 -18 6 0 11 7 11 15 0 20 36 39 43 22 3
-7 21 -18 40 -24 31 -9 36 -8 40 9 4 15 1 18 -14 13 -10 -4 -19 -3 -19 2 0 5
10 10 22 10 13 1 24 7 26 13 3 8 8 7 18 -1 16 -13 16 2 19 797 l2 462 -36 5
c-20 3 -551 4 -1181 2 -630 -3 -1326 -5 -1547 -6 -345 0 -401 -2 -396 -15 3
-8 0 -14 -6 -14 -7 0 -14 6 -17 14 -3 8 -12 17 -19 20 -11 4 -13 -2 -8 -27z
m133 3 c0 -13 -11 -13 -30 0 -12 8 -11 10 8 10 12 0 22 -4 22 -10z m-50 -20
c0 -5 -5 -10 -11 -10 -5 0 -7 5 -4 10 3 6 8 10 11 10 2 0 4 -4 4 -10z m-20
-120 c0 -5 -2 -10 -4 -10 -3 0 -8 5 -11 10 -3 6 -1 10 4 10 6 0 11 -4 11 -10z
m7 -62 c2 -34 0 -39 -8 -25 -9 15 -5 67 4 67 2 0 3 -19 4 -42z m33 -58 c0 -5
-7 -7 -15 -4 -8 4 -15 8 -15 10 0 2 7 4 15 4 8 0 15 -4 15 -10z m10 -71 c0 -5
-4 -9 -10 -9 -5 0 -10 7 -10 16 0 8 5 12 10 9 6 -3 10 -10 10 -16z m30 -23 c0
-2 -7 -7 -16 -10 -8 -3 -12 -2 -9 4 6 10 25 14 25 6z m311 -19 c-10 -9 -11 -8
-5 6 3 10 9 15 12 12 3 -3 0 -11 -7 -18z m-304 -19 c-3 -8 -6 -5 -6 6 -1 11 2
17 5 13 3 -3 4 -12 1 -19z m-40 -10 c-3 -8 -6 -5 -6 6 -1 11 2 17 5 13 3 -3 4
-12 1 -19z m197 -3 c3 -8 1 -15 -3 -15 -5 0 -11 7 -15 15 -3 8 -1 15 3 15 5 0
11 -7 15 -15z m-134 -24 c0 -13 -49 -69 -50 -56 0 9 41 64 48 65 1 0 2 -4 2
-9z m71 -24 c-10 -9 -11 -8 -5 6 3 10 9 15 12 12 3 -3 0 -11 -7 -18z m93 -42
c-4 -8 -11 -12 -16 -9 -6 4 -5 10 3 15 19 12 19 11 13 -6z m31 -24 c-3 -6 -11
-11 -16 -11 -5 0 -4 6 3 14 14 16 24 13 13 -3z m-90 -11 c3 -5 1 -10 -4 -10
-6 0 -11 5 -11 10 0 6 2 10 4 10 3 0 8 -4 11 -10z m-75 -10 c0 -5 -4 -10 -10
-10 -5 0 -10 5 -10 10 0 6 5 10 10 10 6 0 10 -4 10 -10z m40 1 c0 -5 -7 -16
-15 -25 -9 -8 -12 -22 -8 -32 4 -12 3 -15 -5 -10 -15 9 -15 31 0 56 13 21 28
27 28 11z m87 -16 c-10 -7 -17 -20 -17 -29 0 -18 -8 -20 -30 -6 -8 5 -11 12
-7 17 5 4 11 2 15 -4 5 -8 12 -1 21 18 7 16 17 26 23 23 7 -5 5 -11 -5 -19z
m43 -14 c0 -5 -7 -12 -16 -15 -14 -5 -15 -4 -4 9 14 17 20 19 20 6z m0 -61 c0
-5 -2 -10 -4 -10 -3 0 -8 5 -11 10 -3 6 -1 10 4 10 6 0 11 -4 11 -10z m50 -21
c0 -11 -27 -12 -34 0 -3 4 -3 11 0 14 8 8 34 -3 34 -14z m-55 -19 c3 -5 -1
-10 -10 -10 -9 0 -13 5 -10 10 3 6 8 10 10 10 2 0 7 -4 10 -10z m85 0 c0 -5
-4 -10 -10 -10 -5 0 -10 5 -10 10 0 6 5 10 10 10 6 0 10 -4 10 -10z m610 -20
c0 -5 -5 -10 -11 -10 -5 0 -7 5 -4 10 3 6 8 10 11 10 2 0 4 -4 4 -10z m-590
-10 c0 -5 -5 -10 -11 -10 -5 0 -7 5 -4 10 3 6 8 10 11 10 2 0 4 -4 4 -10z
m120 6 c0 -3 -4 -8 -10 -11 -5 -3 -10 -1 -10 4 0 6 5 11 10 11 6 0 10 -2 10
-4z m-90 -26 c0 -5 -5 -10 -11 -10 -5 0 -7 5 -4 10 3 6 8 10 11 10 2 0 4 -4 4
-10z m165 0 c-3 -5 -12 -10 -18 -10 -7 0 -6 4 3 10 19 12 23 12 15 0z m-244
-14 c-9 -10 -9 -16 -1 -21 6 -4 17 1 25 11 7 11 16 16 20 13 3 -4 -1 -14 -10
-23 -9 -9 -13 -20 -10 -26 11 -18 -10 -10 -28 11 -14 16 -16 24 -6 35 6 8 14
14 16 14 3 0 0 -6 -6 -14z m1003 -1 c-25 -19 -38 -19 -22 0 7 8 19 14 27 15
11 0 9 -4 -5 -15z m-874 -5 c0 -5 -5 -10 -11 -10 -5 0 -7 5 -4 10 3 6 8 10 11
10 2 0 4 -4 4 -10z m210 0 c0 -5 -2 -10 -4 -10 -3 0 -8 5 -11 10 -3 6 -1 10 4
10 6 0 11 -4 11 -10z m210 -10 c0 -5 -5 -10 -11 -10 -5 0 -7 5 -4 10 3 6 8 10
11 10 2 0 4 -4 4 -10z m-390 -10 c0 -5 -2 -10 -4 -10 -3 0 -8 5 -11 10 -3 6
-1 10 4 10 6 0 11 -4 11 -10z m670 -23 c0 -4 -9 -3 -20 3 -11 6 -20 15 -20 20
0 6 9 5 20 -2 11 -7 20 -16 20 -21z m100 29 c0 -3 -4 -8 -10 -11 -5 -3 -10 -1
-10 4 0 6 5 11 10 11 6 0 10 -2 10 -4z m-505 -24 c-3 -3 -11 0 -18 7 -9 10 -8
11 6 5 10 -3 15 -9 12 -12z m301 -57 c-9 -10 -20 -14 -24 -10 -4 4 -1 10 6 12
19 7 14 31 -8 38 -11 4 -18 11 -15 16 4 5 18 -2 32 -15 25 -23 25 -25 9 -41z
m419 55 c3 -5 1 -10 -4 -10 -6 0 -11 5 -11 10 0 6 2 10 4 10 3 0 8 -4 11 -10z
m-955 -15 c11 -13 10 -14 -4 -9 -9 3 -16 10 -16 15 0 13 6 11 20 -6z m137 9
c-3 -3 -12 -4 -19 -1 -8 3 -5 6 6 6 11 1 17 -2 13 -5z m58 -15 c-10 -15 -45
-31 -45 -20 0 5 9 13 20 16 11 4 17 11 14 17 -4 7 -2 8 5 4 6 -4 9 -12 6 -17z
m580 3 c-3 -3 -11 0 -18 7 -9 10 -8 11 6 5 10 -3 15 -9 12 -12z m136 1 c13
-16 12 -17 -3 -4 -10 7 -18 15 -18 17 0 8 8 3 21 -13z m-846 -10 c18 -14 18
-15 2 -9 -10 3 -23 6 -28 6 -5 0 -9 5 -9 10 0 14 12 12 35 -7z m295 7 c0 -5
-2 -10 -4 -10 -3 0 -8 5 -11 10 -3 6 -1 10 4 10 6 0 11 -4 11 -10z m76 -4 c11
-8 15 -18 10 -23 -5 -4 -11 -2 -13 5 -3 6 -11 12 -19 12 -8 0 -14 5 -14 10 0
14 13 12 36 -4z m184 5 c0 -5 -11 -8 -25 -8 -14 0 -25 3 -25 8 0 5 11 9 25 9
14 0 25 -4 25 -9z m-320 -19 c-8 -3 -18 -10 -22 -16 -4 -6 -10 -7 -14 -3 -10
10 28 37 40 29 6 -3 3 -8 -4 -10z m-169 -13 c11 -11 17 -24 13 -27 -3 -4 -9
-1 -11 6 -3 6 -11 12 -19 12 -8 0 -14 7 -14 15 0 20 6 19 31 -6z m569 11 c0
-5 -4 -10 -10 -10 -5 0 -10 5 -10 10 0 6 5 10 10 10 6 0 10 -4 10 -10z m160 0
c-13 -9 -13 -11 0 -19 8 -6 11 -13 7 -18 -9 -8 -27 15 -27 35 0 6 8 12 18 12
14 0 15 -2 2 -10z m130 0 c0 -5 -2 -10 -4 -10 -3 0 -8 5 -11 10 -3 6 -1 10 4
10 6 0 11 -4 11 -10z m-775 -10 c3 -5 -1 -10 -9 -10 -9 0 -16 5 -16 10 0 6 4
10 9 10 6 0 13 -4 16 -10z m135 0 c0 -5 -4 -10 -10 -10 -5 0 -10 5 -10 10 0 6
5 10 10 10 6 0 10 -4 10 -10z m410 -15 c7 4 6 -2 -2 -14 -7 -12 -16 -21 -21
-21 -4 0 -5 5 -2 10 3 6 1 10 -4 10 -6 0 -11 7 -11 16 0 13 3 14 15 4 8 -6 19
-9 25 -5z m-670 -4 c0 -6 -4 -13 -10 -16 -5 -3 -10 1 -10 9 0 9 5 16 10 16 6
0 10 -4 10 -9z m90 -1 c0 -5 -5 -10 -11 -10 -5 0 -7 5 -4 10 3 6 8 10 11 10 2
0 4 -4 4 -10z m209 -11 c-15 -11 -25 -14 -28 -7 -4 12 13 25 35 25 12 0 9 -5
-7 -18z m255 10 c13 11 16 11 16 -2 0 -8 3 -23 6 -31 5 -12 2 -15 -10 -10 -10
4 -16 1 -16 -9 0 -8 -5 -17 -12 -19 -7 -3 -8 -9 -3 -18 6 -10 11 -9 22 6 17
23 46 9 51 -26 2 -14 0 -20 -7 -16 -6 4 -11 17 -11 29 l-1 22 -18 -22 c-11
-13 -22 -23 -25 -23 -3 0 -19 14 -36 32 -17 17 -34 28 -38 24 -4 -4 1 -14 12
-21 17 -13 17 -15 3 -29 -20 -20 -33 -20 -41 -1 -3 8 -12 15 -21 15 -8 0 -15
7 -15 15 0 20 10 19 26 -2 7 -10 16 -14 20 -10 5 4 2 13 -6 18 -10 7 -11 12
-3 15 6 3 21 14 34 25 29 25 31 24 23 -6 -7 -27 7 -33 25 -11 8 10 9 16 1 21
-5 3 -10 16 -10 28 0 17 2 19 9 8 8 -12 12 -12 25 -2z m-334 -6 c0 -5 -5 -15
-10 -23 -8 -12 -10 -11 -10 8 0 12 5 22 10 22 6 0 10 -3 10 -7z m175 -2 c7
-12 -12 -24 -25 -16 -11 7 -4 25 10 25 5 0 11 -4 15 -9z m495 -6 c0 -8 -4 -15
-10 -15 -5 0 -10 7 -10 15 0 8 5 15 10 15 6 0 10 -7 10 -15z m-549 -8 c-1 -12
-15 -9 -19 4 -3 6 1 10 8 8 6 -3 11 -8 11 -12z m283 -2 c3 -9 0 -15 -9 -15 -8
0 -15 7 -15 15 0 8 4 15 9 15 5 0 11 -7 15 -15z m-374 -5 c0 -5 -2 -10 -4 -10
-3 0 -8 5 -11 10 -3 6 -1 10 4 10 6 0 11 -4 11 -10z m190 1 c0 -6 -4 -13 -10
-16 -5 -3 -10 1 -10 9 0 9 5 16 10 16 6 0 10 -4 10 -9z m-120 -21 c0 -5 -7
-10 -15 -10 -8 0 -15 5 -15 10 0 6 7 10 15 10 8 0 15 -4 15 -10z m544 -32 c-5
-7 -11 -6 -19 5 -7 9 -14 14 -17 11 -3 -2 -8 2 -11 11 -6 14 -4 14 24 0 17 -9
27 -21 23 -27z m121 32 c-3 -5 -11 -10 -16 -10 -6 0 -7 5 -4 10 3 6 11 10 16
10 6 0 7 -4 4 -10z m-345 -22 c0 -13 -23 -5 -28 10 -2 7 2 10 12 6 9 -3 16
-11 16 -16z m296 -5 c-10 -10 -19 5 -10 18 6 11 8 11 12 0 2 -7 1 -15 -2 -18z
m47 -13 c-6 -21 -24 -23 -30 -3 -2 6 4 13 14 16 10 3 19 5 20 6 0 0 -1 -8 -4
-19z m107 10 c0 -5 -2 -10 -4 -10 -3 0 -8 5 -11 10 -3 6 -1 10 4 10 6 0 11 -4
11 -10z m-160 -20 c0 -5 -4 -10 -10 -10 -5 0 -10 5 -10 10 0 6 5 10 10 10 6 0
10 -4 10 -10z m-150 -9 c0 -5 -7 -11 -15 -15 -15 -5 -20 5 -8 17 9 10 23 9 23
-2z m705 -1 c3 -5 1 -10 -4 -10 -6 0 -11 5 -11 10 0 6 2 10 4 10 3 0 8 -4 11
-10z m-340 -19 c-3 -6 -11 -11 -17 -11 -6 0 -6 6 2 15 14 17 26 13 15 -4z
m150 -9 c-7 -8 -35 7 -35 18 0 6 7 6 20 -2 10 -7 17 -14 15 -16z m-200 9 c3
-5 1 -12 -5 -16 -5 -3 -10 1 -10 9 0 18 6 21 15 7z m255 -41 c0 -5 -4 -10 -10
-10 -5 0 -10 5 -10 10 0 6 5 10 10 10 6 0 10 -4 10 -10z m-150 -38 c0 -18 -28
-45 -38 -38 -17 10 -15 26 3 26 8 0 15 5 15 10 0 6 5 10 10 10 6 0 10 -4 10
-8z m150 -2 c0 -5 -4 -10 -9 -10 -5 0 -11 -8 -14 -17 -4 -17 -4 -17 -12 1 -5
12 -3 21 6 27 19 12 29 11 29 -1z m144 1 c3 -5 -1 -14 -8 -20 -12 -10 -13 -8
-9 8 6 23 9 25 17 12z m354 -26 c-6 -14 -15 -25 -20 -25 -5 0 -1 11 8 25 9 14
18 25 20 25 2 0 -2 -11 -8 -25z m-468 -5 c-7 -14 -7 -20 0 -20 5 0 10 -5 10
-12 0 -6 -9 -3 -21 8 -19 17 -19 19 -3 31 24 18 27 16 14 -7z m289 6 c8 -10 8
-16 -1 -24 -10 -8 -13 -4 -13 14 0 28 -1 28 14 10z m-444 -16 c3 -5 3 -15 -1
-21 -6 -11 -23 6 -24 24 0 10 18 9 25 -3z m275 -10 c0 -5 -5 -10 -11 -10 -5 0
-7 5 -4 10 3 6 8 10 11 10 2 0 4 -4 4 -10z m115 -8 c-3 -3 -11 0 -18 7 -9 10
-8 11 6 5 10 -3 15 -9 12 -12z m-191 -17 c3 -8 1 -15 -4 -15 -6 0 -10 7 -10
15 0 8 2 15 4 15 2 0 6 -7 10 -15z m406 -7 c0 -5 -11 -8 -25 -8 -14 0 -25 4
-25 9 0 5 11 8 25 7 14 0 25 -4 25 -8z m-320 -8 c0 -5 -4 -10 -10 -10 -5 0
-10 5 -10 10 0 6 5 10 10 10 6 0 10 -4 10 -10z m170 -10 c0 -5 -2 -10 -4 -10
-3 0 -8 5 -11 10 -3 6 -1 10 4 10 6 0 11 -4 11 -10z m442 -12 c-7 -7 -12 -8
-12 -2 0 14 12 26 19 19 2 -3 -1 -11 -7 -17z m-672 -3 c0 -9 -12 -18 -30 -21
-16 -4 -30 -11 -30 -16 0 -5 -5 -6 -10 -3 -11 7 1 21 35 42 27 16 35 16 35 -2z
m740 -5 c0 -10 -31 -23 -38 -15 -8 7 19 35 29 29 5 -3 9 -9 9 -14z m65 0 c-3
-5 -13 -10 -21 -10 -8 0 -12 5 -9 10 3 6 13 10 21 10 8 0 12 -4 9 -10z m-151
-15 c11 -8 16 -18 11 -22 -4 -5 -10 -2 -12 5 -3 6 -11 12 -18 12 -8 0 -17 5
-20 10 -9 15 17 11 39 -5z m56 -25 c0 -5 -7 -10 -16 -10 -8 0 -12 5 -9 10 3 6
10 10 16 10 5 0 9 -4 9 -10z"/>
<path d="M319 5963 c-13 -16 -12 -17 4 -4 9 7 17 15 17 17 0 8 -8 3 -21 -13z"/>
<path d="M701 5946 c-8 -9 -11 -19 -7 -23 9 -9 29 13 24 27 -2 8 -8 7 -17 -4z"/>
<path d="M388 5921 c-7 -10 -22 -20 -32 -22 -11 -2 -21 -10 -24 -17 -3 -11 2
-11 24 1 33 17 72 57 56 57 -6 0 -17 -8 -24 -19z"/>
<path d="M158 5870 c-16 -16 -33 -30 -38 -30 -5 0 -21 -11 -37 -24 -16 -14
-41 -28 -56 -31 -24 -6 -26 -11 -25 -55 l1 -48 64 35 c35 20 67 33 70 29 4 -3
17 4 30 16 12 12 25 19 28 16 7 -7 -121 -128 -135 -128 -7 0 -1 9 14 21 42 33
30 40 -24 12 -33 -17 -50 -32 -50 -44 0 -21 26 -26 33 -6 4 9 6 9 6 0 1 -6 -8
-18 -19 -26 -19 -13 -21 -24 -19 -156 0 -104 4 -139 12 -134 63 35 116 77 110
85 -4 7 -10 6 -17 -3 -13 -16 -72 -49 -89 -49 -15 0 55 59 71 60 6 0 12 5 12
11 0 6 10 19 23 30 l22 19 -30 -12 c-16 -6 -36 -16 -43 -21 -8 -6 -12 -5 -12
2 0 17 68 80 111 101 37 20 59 40 41 40 -5 0 -21 -9 -34 -20 -14 -10 -28 -17
-31 -14 -6 6 -117 -63 -129 -81 -5 -6 -8 -6 -8 2 0 7 20 27 45 45 24 18 44 38
45 45 0 6 11 20 25 31 14 11 25 24 25 28 0 5 23 19 51 32 29 12 49 25 46 28
-3 3 -19 -2 -36 -10 -16 -9 -36 -16 -42 -16 -7 0 -21 -7 -31 -17 -16 -14 -18
-14 -18 0 0 8 14 21 30 29 17 7 30 17 30 23 0 5 17 25 37 43 47 41 23 31 -34
-15 -61 -48 -65 -40 -8 17 27 28 45 50 40 50 -6 1 8 11 30 22 22 12 44 21 49
20 11 -4 36 18 36 31 0 5 -9 2 -20 -8 -21 -19 -28 -7 -8 13 20 20 -1 13 -24
-7 -24 -23 -131 -75 -173 -85 l-30 -6 24 21 c21 17 22 22 10 30 -11 7 -10 9 5
9 16 0 86 62 86 76 0 10 -14 2 -42 -26z"/>
<path d="M4 5878 c-11 -17 6 -22 22 -7 13 14 13 16 -1 16 -9 0 -18 -4 -21 -9z"/>
<path d="M460 5855 c-7 -9 -10 -18 -7 -22 8 -7 37 15 37 28 0 14 -16 11 -30
-6z"/>
<path d="M342 5840 c-18 -29 -15 -36 8 -15 20 18 26 35 12 35 -4 0 -13 -9 -20
-20z"/>
<path d="M351 5764 c13 -16 29 -19 29 -5 0 5 -9 11 -21 14 -16 4 -18 3 -8 -9z"/>
<path d="M295 5735 c-34 -28 -28 -32 16 -10 16 9 27 20 24 25 -8 13 -5 14 -40
-15z"/>
<path d="M119 5723 c-13 -16 -12 -17 4 -4 16 13 21 21 13 21 -2 0 -10 -8 -17
-17z"/>
<path d="M217 5704 c-16 -9 -26 -18 -23 -21 3 -3 20 4 38 16 38 24 27 28 -15
5z"/>
<path d="M235 5539 c-11 -17 1 -21 15 -4 8 9 8 15 2 15 -6 0 -14 -5 -17 -11z"/>
<path d="M2900 5421 c0 -12 5 -21 10 -21 6 0 10 6 10 14 0 8 -4 18 -10 21 -5
3 -10 -3 -10 -14z"/>
<path d="M65 5320 c3 -5 8 -10 11 -10 2 0 4 5 4 10 0 6 -5 10 -11 10 -5 0 -7
-4 -4 -10z"/>
<path d="M2980 5320 c0 -5 5 -10 10 -10 6 0 10 5 10 10 0 6 -4 10 -10 10 -5 0
-10 -4 -10 -10z"/>
<path d="M15 5300 c-10 -11 -16 -22 -14 -25 7 -6 49 24 49 36 0 15 -16 10 -35
-11z"/>
<path d="M2977 5284 c-8 -8 1 -24 14 -24 5 0 9 7 9 15 0 15 -12 20 -23 9z"/>
<path d="M2946 5247 c2 -7 17 -14 32 -15 l27 -1 -25 14 c-31 18 -41 19 -34 2z"/>
<path d="M3150 5250 c0 -5 5 -10 10 -10 6 0 10 5 10 10 0 6 -4 10 -10 10 -5 0
-10 -4 -10 -10z"/>
<path d="M2960 5163 c0 -17 29 -43 48 -43 12 0 10 5 -8 17 -14 9 -28 22 -32
27 -5 8 -8 7 -8 -1z"/>
<path d="M2998 5163 c7 -3 16 -2 19 1 4 3 -2 6 -13 5 -11 0 -14 -3 -6 -6z"/>
<path d="M3066 5145 c-3 -8 -1 -15 4 -15 6 0 10 7 10 15 0 8 -2 15 -4 15 -2 0
-6 -7 -10 -15z"/>
<path d="M3090 5114 c0 -8 5 -12 10 -9 6 4 8 11 5 16 -9 14 -15 11 -15 -7z"/>
<path d="M3050 5105 c7 -9 15 -13 17 -11 7 7 -7 26 -19 26 -6 0 -6 -6 2 -15z"/>
<path d="M3190 5100 c0 -5 7 -10 16 -10 8 0 12 5 9 10 -3 6 -10 10 -16 10 -5
0 -9 -4 -9 -10z"/>
<path d="M2976 5091 c-4 -7 -5 -15 -2 -18 9 -9 19 4 14 18 -4 11 -6 11 -12 0z"/>
<path d="M3420 5091 c0 -4 6 -13 13 -20 10 -10 8 -15 -7 -27 -11 -7 -16 -17
-12 -21 8 -8 45 35 46 53 0 7 -9 14 -20 17 -11 3 -20 2 -20 -2z"/>
<path d="M3110 5079 c0 -5 5 -7 10 -4 6 3 10 8 10 11 0 2 -4 4 -10 4 -5 0 -10
-5 -10 -11z"/>
<path d="M2931 5039 c0 -24 7 -66 15 -94 l13 -50 -5 60 c-10 114 -25 169 -23
84z"/>
<path d="M3175 5060 c3 -5 11 -10 16 -10 6 0 7 5 4 10 -3 6 -11 10 -16 10 -6
0 -7 -4 -4 -10z"/>
<path d="M3385 5060 c-8 -13 5 -13 25 0 13 8 13 10 -2 10 -9 0 -20 -4 -23 -10z"/>
<path d="M3205 5040 c-16 -18 -16 -18 4 -13 25 6 35 19 22 27 -4 3 -16 -3 -26
-14z"/>
<path d="M3817 5035 c-9 -8 -22 -13 -30 -10 -10 5 -13 -1 -9 -25 2 -16 -1 -37
-8 -45 -16 -19 -3 -20 16 -1 7 8 19 17 26 19 10 4 10 8 -1 15 -16 11 -7 32 14
32 17 0 28 17 16 24 -5 4 -16 -1 -24 -9z"/>
<path d="M3030 5026 c0 -9 5 -16 10 -16 6 0 10 4 10 9 0 6 -4 13 -10 16 -5 3
-10 -1 -10 -9z"/>
<path d="M3525 5030 c-9 -15 -1 -23 21 -18 15 3 16 4 1 16 -11 9 -17 10 -22 2z"/>
<path d="M3580 5030 c0 -5 9 -10 21 -10 15 0 19 -5 15 -15 -4 -12 -2 -13 13
-3 19 12 23 10 72 -35 15 -14 24 -15 39 -7 36 19 26 35 -42 68 -4 1 -5 -4 -2
-12 3 -9 15 -16 25 -16 10 0 19 -7 19 -15 0 -26 -27 -16 -59 23 -26 31 -32 35
-42 22 -8 -11 -12 -12 -16 -2 -6 14 -43 16 -43 2z"/>
<path d="M771 5013 c-9 -14 -12 -15 -20 -4 -5 8 -11 9 -15 3 -10 -17 27 -24
43 -8 8 9 12 18 9 22 -3 3 -11 -3 -17 -13z"/>
<path d="M830 5010 c-9 -6 -10 -10 -3 -10 6 0 15 5 18 10 8 12 4 12 -15 0z"/>
<path d="M3237 5003 c-4 -3 -7 -15 -7 -25 0 -12 7 -18 23 -17 16 1 18 2 5 6
-19 5 -25 23 -8 23 6 0 10 5 10 10 0 11 -13 13 -23 3z"/>
<path d="M3375 4985 c-30 -25 -28 -29 12 -19 13 4 21 13 20 25 -1 10 -1 19 -2
19 0 0 -13 -11 -30 -25z"/>
<path d="M3440 5000 c0 -5 5 -10 10 -10 6 0 10 5 10 10 0 6 -4 10 -10 10 -5 0
-10 -4 -10 -10z"/>
<path d="M3500 4984 c0 -12 8 -25 17 -28 18 -7 41 10 28 21 -4 5 -10 2 -13 -6
-3 -10 -8 -7 -18 10 -13 23 -13 23 -14 3z"/>
<path d="M3850 4975 c-9 -10 -9 -15 -1 -15 6 0 16 -12 22 -27 10 -27 11 -27
25 -9 20 28 17 38 -7 31 -12 -4 -19 -3 -16 2 3 5 2 15 -2 21 -6 10 -11 9 -21
-3z"/>
<path d="M3611 4971 c-10 -6 -10 -10 -1 -16 7 -4 19 0 28 9 14 13 14 16 2 16
-8 0 -21 -4 -29 -9z"/>
<path d="M4378 4955 c-6 -14 -17 -25 -24 -25 -6 0 -14 -6 -17 -12 -3 -8 4 -13
18 -13 13 0 21 3 18 8 -2 4 3 14 11 23 15 15 22 44 11 44 -3 0 -11 -11 -17
-25z"/>
<path d="M3402 4959 c-25 -10 -29 -29 -6 -29 8 0 13 4 9 9 -3 6 12 11 32 13
33 3 35 4 12 9 -14 3 -36 2 -47 -2z"/>
<path d="M3995 4960 c-3 -5 1 -10 9 -10 9 0 16 5 16 10 0 6 -4 10 -9 10 -6 0
-13 -4 -16 -10z"/>
<path d="M4208 4963 c-27 -7 -22 -23 7 -23 16 0 25 -6 25 -15 0 -8 5 -15 10
-15 13 0 13 16 0 41 -11 19 -13 20 -42 12z"/>
<path d="M915 4950 c-3 -5 1 -10 10 -10 9 0 13 5 10 10 -3 6 -8 10 -10 10 -2
0 -7 -4 -10 -10z"/>
<path d="M3311 4955 c0 -22 25 -44 40 -34 12 7 12 9 0 9 -8 0 -20 8 -27 18 -7
9 -13 13 -13 7z"/>
<path d="M3650 4945 c-7 -8 -8 -15 -2 -15 5 0 15 7 22 15 7 8 8 15 2 15 -5 0
-15 -7 -22 -15z"/>
<path d="M4273 4924 c-1 -31 1 -33 12 -18 7 10 10 26 7 36 -7 30 -18 20 -19
-18z"/>
<path d="M3685 4933 c-5 -10 -8 -21 -7 -24 1 -4 -8 -15 -18 -24 -11 -10 -20
-23 -20 -28 0 -15 39 23 45 44 4 11 12 16 21 12 18 -7 18 11 0 26 -11 9 -15 8
-21 -6z"/>
<path d="M3795 4940 c-3 -5 -1 -10 4 -10 6 0 11 5 11 10 0 6 -2 10 -4 10 -3 0
-8 -4 -11 -10z"/>
<path d="M3030 4929 c0 -5 5 -7 10 -4 6 3 10 8 10 11 0 2 -4 4 -10 4 -5 0 -10
-5 -10 -11z"/>
<path d="M3230 4930 c0 -5 7 -10 16 -10 8 0 12 5 9 10 -3 6 -10 10 -16 10 -5
0 -9 -4 -9 -10z"/>
<path d="M3832 4928 c-14 -14 -16 -42 -3 -34 7 5 23 46 17 46 -1 0 -7 -5 -14
-12z"/>
<path d="M758 4923 c7 -3 16 -2 19 1 4 3 -2 6 -13 5 -11 0 -14 -3 -6 -6z"/>
<path d="M3574 4919 c-3 -6 -1 -16 5 -22 8 -8 11 -5 11 11 0 24 -5 28 -16 11z"/>
<path d="M4080 4915 c0 -8 5 -15 10 -15 6 0 10 7 10 15 0 8 -4 15 -10 15 -5 0
-10 -7 -10 -15z"/>
<path d="M4116 4915 c4 -8 10 -12 15 -9 11 6 2 24 -11 24 -5 0 -7 -7 -4 -15z"/>
<path d="M1084 4905 c-10 -8 -14 -14 -9 -15 15 0 40 18 34 24 -3 3 -14 -1 -25
-9z"/>
<path d="M3440 4910 c0 -6 7 -10 15 -10 8 0 15 2 15 4 0 2 -7 6 -15 10 -8 3
-15 1 -15 -4z"/>
<path d="M4420 4911 c0 -6 9 -11 19 -11 10 0 21 -7 25 -15 7 -20 26 -19 26 1
0 15 2 15 25 0 22 -14 25 -15 25 -1 0 8 -8 15 -17 16 -40 2 -69 6 -85 14 -11
4 -18 3 -18 -4z"/>
<path d="M1250 4902 c0 -5 7 -13 16 -16 10 -4 14 -1 12 6 -5 15 -28 23 -28 10z"/>
<path d="M3141 4894 c0 -11 3 -14 6 -6 3 7 2 16 -1 19 -3 4 -6 -2 -5 -13z"/>
<path d="M3638 4903 c7 -3 16 -2 19 1 4 3 -2 6 -13 5 -11 0 -14 -3 -6 -6z"/>
<path d="M3764 4895 c-19 -14 -18 -14 4 -15 13 0 22 6 22 15 0 19 -1 19 -26 0z"/>
<path d="M546 4884 c-11 -8 -16 -14 -10 -14 13 0 39 18 34 24 -3 2 -14 -2 -24
-10z"/>
<path d="M1035 4890 c3 -5 11 -10 16 -10 6 0 7 5 4 10 -3 6 -11 10 -16 10 -6
0 -7 -4 -4 -10z"/>
<path d="M3900 4890 c0 -4 7 -10 15 -14 8 -3 15 -11 15 -17 0 -8 -4 -8 -13 -1
-8 7 -18 7 -27 2 -12 -8 -10 -10 9 -10 18 0 22 -4 17 -17 -6 -16 -6 -16 12 0
10 9 24 17 30 17 23 0 11 16 -23 32 -19 8 -35 12 -35 8z"/>
<path d="M3955 4890 c3 -5 8 -10 11 -10 2 0 4 5 4 10 0 6 -5 10 -11 10 -5 0
-7 -4 -4 -10z"/>
<path d="M4235 4880 c9 -30 13 -35 21 -27 3 3 -2 16 -11 29 l-17 23 7 -25z"/>
<path d="M2720 4880 c0 -5 5 -10 10 -10 6 0 10 5 10 10 0 6 -4 10 -10 10 -5 0
-10 -4 -10 -10z"/>
<path d="M1132 4864 c-12 -8 -19 -20 -16 -26 4 -5 38 -26 78 -45 39 -19 91
-45 116 -58 25 -13 51 -24 58 -24 6 -1 12 -8 12 -18 0 -9 3 -14 6 -11 7 7 160
-67 169 -81 10 -17 -11 -13 -25 4 -7 8 -18 15 -26 15 -16 0 -78 -41 -82 -55
-2 -5 -10 -17 -18 -27 -14 -14 -14 -17 2 -26 14 -8 16 -13 6 -24 -6 -8 -9 -18
-5 -21 13 -13 23 -7 23 15 0 17 3 19 12 10 7 -7 20 -12 30 -12 16 0 23 -11 19
-32 0 -5 4 -8 10 -8 6 0 9 -12 7 -27 -2 -22 -8 -28 -26 -27 -15 0 -21 -4 -18
-13 3 -7 1 -13 -5 -13 -6 0 -9 10 -7 23 2 14 9 21 21 21 18 -2 23 11 8 21 -5
3 -21 -6 -35 -20 l-25 -25 26 -20 c16 -12 20 -20 11 -20 -8 0 -19 5 -25 11 -8
8 -15 6 -25 -10 -7 -11 -16 -21 -20 -21 -14 0 -8 31 7 36 17 7 10 24 -9 24 -8
0 -13 -7 -12 -16 0 -9 -5 -19 -13 -22 -10 -3 -12 0 -8 12 7 18 -8 22 -19 4 -4
-6 -2 -14 4 -16 17 -5 15 -52 -2 -52 -7 0 -27 7 -42 15 -34 18 -60 19 -69 4
-4 -6 0 -9 10 -7 10 2 20 -2 22 -7 2 -7 -15 -10 -44 -8 -27 2 -102 3 -167 3
-79 -1 -121 2 -126 10 -5 8 -12 7 -23 -5 -14 -13 -21 -14 -39 -4 -16 9 -23 9
-26 0 -5 -14 -52 -15 -52 -1 0 6 4 10 9 10 5 0 12 7 15 16 5 13 0 13 -28 -4
-28 -17 -35 -18 -40 -6 -3 8 -15 13 -28 11 -15 -1 -23 4 -26 17 -3 15 0 17 14
12 15 -6 16 -5 7 5 -10 10 -17 9 -33 -6 -11 -10 -23 -15 -27 -12 -3 4 -1 7 6
7 7 0 -2 12 -20 27 -21 18 -34 24 -37 15 -7 -23 -21 -12 -20 18 1 17 -1 32 -3
34 -11 9 -79 14 -79 5 0 -5 5 -9 10 -9 6 0 10 -8 10 -17 -1 -17 -1 -17 -14 0
-7 9 -19 17 -27 17 -12 0 -12 2 0 9 7 5 10 14 7 20 -11 17 -39 -16 -32 -37 4
-11 -1 -8 -15 7 -17 20 -22 22 -29 11 -6 -9 -5 -17 3 -22 8 -5 9 -8 1 -8 -6 0
-17 7 -25 16 -17 20 -65 45 -73 37 -10 -10 -7 -25 4 -18 6 3 10 1 10 -5 0 -7
8 -9 19 -5 26 8 36 -22 11 -35 -13 -7 -20 -6 -23 3 -2 6 -17 12 -33 13 -16 0
-38 5 -49 9 -19 8 -19 8 -3 -8 9 -9 21 -17 27 -17 6 0 11 -5 11 -11 0 -8 4 -8
13 -1 9 7 17 3 31 -15 18 -25 18 -25 -3 -14 -15 9 -21 9 -21 1 0 -6 -12 -2
-26 9 -40 32 -51 25 -15 -9 37 -36 42 -56 9 -39 -22 12 -22 11 -8 -7 8 -10 19
-22 25 -26 5 -4 6 -10 2 -14 -8 -8 -13 -9 -161 -19 -88 -6 -126 -19 -126 -42
0 -20 56 -29 186 -28 113 1 124 -1 130 -18 5 -17 7 -17 23 -3 10 9 20 16 23
16 2 0 24 -18 49 -40 44 -40 59 -48 59 -31 0 5 16 8 36 7 23 -2 34 1 31 8 -3
7 12 11 41 11 27 -1 47 -6 50 -13 2 -7 8 -12 14 -12 6 0 6 6 -2 15 -10 12 -10
15 0 15 7 0 19 -8 26 -17 7 -10 21 -18 31 -18 11 0 17 -6 15 -17 -2 -13 2 -16
15 -11 16 6 16 5 5 -10 -13 -15 -15 -15 -29 -1 -13 13 -17 13 -24 2 -14 -21
-11 -28 12 -28 12 0 23 -8 26 -19 3 -12 11 -17 19 -14 8 3 14 1 14 -5 0 -17
28 -22 34 -6 3 9 1 12 -4 9 -6 -3 -10 1 -10 9 0 8 -7 21 -15 30 -11 10 -12 17
-4 22 6 3 14 3 18 -2 3 -5 19 -10 35 -12 15 -2 46 -14 68 -28 38 -24 39 -24
33 -5 -4 12 -2 21 4 21 6 0 11 5 11 11 0 8 -5 7 -15 -1 -9 -7 -19 -9 -23 -5
-4 4 -2 10 4 12 6 2 10 19 8 38 -1 21 2 36 9 37 7 0 17 2 22 2 6 1 16 5 23 9
6 5 12 6 12 2 0 -3 9 -1 21 5 16 9 20 8 18 -2 -6 -47 4 -99 25 -130 l23 -35
-23 5 c-17 3 -24 0 -24 -11 0 -8 5 -17 11 -19 6 -2 11 -21 11 -42 0 -26 3 -34
9 -25 6 10 11 11 19 3 9 -9 9 -14 1 -18 -6 -4 -11 -11 -11 -17 0 -5 9 -4 20 3
10 7 22 9 26 5 12 -12 -3 -19 -40 -19 -20 0 -33 -4 -30 -9 3 -5 0 -9 -7 -9 -6
0 -9 8 -6 19 7 27 -36 35 -52 9 -6 -10 -16 -18 -22 -18 -8 0 -8 4 -2 13 6 6
13 21 16 32 6 18 5 17 -9 -2 -9 -13 -24 -23 -33 -23 -14 1 -14 2 2 11 21 12
23 31 2 23 -8 -4 -15 -1 -15 5 0 6 -5 11 -11 11 -6 0 -8 -8 -4 -19 5 -16 2
-19 -20 -17 -34 4 -41 13 -15 21 26 8 21 29 -8 33 -12 2 -22 8 -22 13 0 5 -4
9 -10 9 -21 0 -9 -20 15 -26 31 -8 32 -20 4 -29 -14 -5 -25 -2 -30 6 -4 8 -14
14 -21 14 -19 0 -78 29 -78 37 0 5 -7 8 -15 8 -8 0 -15 5 -15 10 0 6 -4 10 -9
10 -14 0 -9 -43 6 -58 7 -7 18 -10 24 -6 8 4 9 3 5 -4 -5 -8 0 -12 12 -12 20
0 36 -25 27 -40 -2 -4 9 -10 26 -14 26 -5 29 -9 24 -27 l-7 -22 23 22 c26 24
39 11 17 -17 -12 -15 -10 -15 15 1 24 15 30 16 47 4 11 -8 17 -17 13 -20 -3
-4 -15 0 -25 10 -16 15 -18 15 -18 0 0 -29 29 -38 140 -41 40 -1 50 -4 50 -18
0 -10 5 -18 11 -18 6 0 9 7 5 15 -7 19 8 19 24 0 12 -14 15 -14 31 1 16 15 18
14 21 -8 l3 -23 28 28 c29 28 42 27 70 -8 4 -6 7 -1 5 10 -2 12 4 21 16 23 10
2 16 0 12 -6 -3 -5 1 -15 9 -22 13 -11 15 -9 13 11 -2 19 2 24 20 23 18 0 21
3 16 20 -6 18 -5 19 9 8 10 -9 17 -10 22 -2 3 6 11 8 16 5 5 -3 6 0 3 8 -3 8
-1 18 5 22 6 3 11 1 11 -4 0 -6 5 -11 11 -11 6 0 9 6 7 12 -5 14 15 38 31 38
6 0 11 8 11 18 0 23 62 90 79 84 10 -3 10 0 0 16 -11 17 -10 23 2 38 8 9 19
29 26 43 10 23 11 23 9 4 -1 -12 -11 -32 -21 -43 -19 -22 -19 -22 0 -36 24
-17 46 -18 23 -1 -11 9 -14 18 -8 27 5 8 12 11 16 8 9 -10 37 20 29 32 -8 13
5 81 15 75 5 -3 6 4 3 16 -4 12 3 32 15 48 18 25 19 30 5 43 -22 23 0 62 30
52 20 -6 19 -4 -5 19 -28 26 -38 44 -17 32 6 -4 20 3 32 16 17 18 18 21 4 16
-54 -22 -53 -22 -39 -5 9 11 9 18 3 23 -7 4 -5 15 5 31 14 20 14 27 3 40 -12
15 -11 16 7 10 15 -4 26 0 40 16 17 20 17 21 1 8 -16 -12 -20 -12 -27 1 -6 8
-6 15 0 17 5 2 6 10 3 18 -7 18 16 18 40 -1 47 -35 107 48 62 85 -8 7 -15 23
-15 35 0 28 -27 40 -49 23 -14 -12 -14 -11 -2 4 20 26 7 50 -24 42 -16 -4 -25
-2 -25 6 0 7 -6 10 -13 7 -6 -2 -19 3 -27 11 -13 14 -12 15 4 9 16 -6 17 -5 6
8 -14 17 -70 21 -70 4 0 -8 -5 -7 -15 1 -9 7 -14 19 -11 26 3 9 -1 11 -12 7
-9 -3 -14 -3 -10 2 4 4 -3 16 -15 25 -21 18 -23 18 -44 -2 -13 -12 -26 -18
-30 -15 -3 4 -15 0 -25 -10 -16 -14 -18 -14 -18 -1 0 9 9 18 21 21 26 7 18 23
-17 31 -19 5 -30 2 -40 -11 -7 -10 -14 -13 -14 -7 0 5 5 15 12 22 6 6 8 15 4
19 -5 5 -15 -2 -23 -14 -9 -13 -24 -23 -34 -23 -27 0 -24 -18 4 -23 20 -3 20
-4 3 -12 -12 -5 -21 -3 -26 5 -7 11 -11 11 -24 1 -11 -10 -16 -10 -16 -2 0 6
7 14 15 17 18 7 20 24 2 24 -7 0 -23 9 -35 20 -12 12 -23 16 -27 10 -3 -6 -3
-10 1 -10 4 0 -1 -6 -11 -14 -11 -8 -26 -11 -33 -8 -12 4 -11 8 3 19 26 18 13
26 -13 7z m208 -63 c0 -5 -7 -12 -16 -15 -14 -5 -15 -4 -4 9 14 17 20 19 20 6z
m180 -45 c0 -5 -9 -1 -20 9 -11 10 -20 22 -20 26 0 5 9 1 20 -8 11 -10 20 -22
20 -27z m-10 -26 c0 -5 -2 -10 -4 -10 -3 0 -8 5 -11 10 -3 6 -1 10 4 10 6 0
11 -4 11 -10z m170 -102 c0 -6 -6 -5 -15 2 -8 7 -15 14 -15 16 0 2 7 1 15 -2
8 -4 15 -11 15 -16z m-185 -37 c-3 -6 -11 -11 -17 -11 -6 0 -6 6 2 15 14 17
26 13 15 -4z m35 -4 c0 -2 -9 -14 -19 -26 -20 -23 -51 -25 -58 -4 -3 7 3 9 16
6 12 -3 27 2 36 11 16 15 25 20 25 13z m19 -33 l-34 -35 29 -25 c15 -14 25
-28 22 -31 -3 -4 -12 1 -19 11 -11 16 -31 23 -64 25 -7 1 -13 6 -13 12 0 6 5
9 12 7 6 -2 29 13 50 34 48 48 64 50 17 2z m66 -14 c-3 -5 -12 -10 -18 -10 -7
0 -6 4 3 10 19 12 23 12 15 0z m-40 -26 c11 -11 19 -13 28 -6 8 7 18 6 31 -4
19 -14 19 -15 -9 -44 -35 -37 -46 -30 -16 10 16 23 18 30 7 30 -8 0 -16 -4
-18 -9 -1 -5 -16 1 -33 15 -16 13 -25 24 -18 24 6 0 19 -7 28 -16z m-51 -49
c3 -8 1 -15 -4 -15 -6 0 -10 7 -10 15 0 8 2 15 4 15 2 0 6 -7 10 -15z m116
-40 c-7 -9 -15 -13 -17 -11 -7 7 7 26 19 26 6 0 6 -6 -2 -15z m-1086 -11 c9
-22 -3 -32 -14 -14 -12 19 -12 30 -1 30 5 0 12 -7 15 -16z m1026 1 c7 -8 8
-15 2 -15 -5 0 -15 7 -22 15 -7 8 -8 15 -2 15 5 0 15 -7 22 -15z m-1130 -30
c0 -9 -6 -12 -15 -9 -8 4 -15 10 -15 15 0 5 7 9 15 9 8 0 15 -7 15 -15z m-69
-17 c27 -33 23 -41 -6 -12 -14 14 -25 27 -25 29 0 11 13 3 31 -17z m1244 12
c3 -5 1 -10 -4 -10 -6 0 -11 5 -11 10 0 6 2 10 4 10 3 0 8 -4 11 -10z m-85 -8
c0 -5 -9 -17 -20 -27 -16 -14 -20 -15 -20 -4 0 16 19 39 32 39 4 0 8 -4 8 -8z
m-970 -22 c0 -5 -4 -10 -10 -10 -5 0 -10 5 -10 10 0 6 5 10 10 10 6 0 10 -4
10 -10z m899 -42 c-12 -22 -29 -23 -29 -3 0 9 -6 12 -17 8 -10 -4 -14 -2 -10
4 4 6 20 10 36 9 24 -1 27 -4 20 -18z m81 -18 c0 -5 -5 -10 -11 -10 -5 0 -7 5
-4 10 3 6 8 10 11 10 2 0 4 -4 4 -10z m-1210 -14 c0 -9 -30 -14 -35 -6 -4 6 3
10 14 10 12 0 21 -2 21 -4z m785 -30 c-14 -10 -25 -11 -48 -2 l-30 11 44 5
c53 6 58 4 34 -14z m-625 -106 c0 -5 -4 -10 -10 -10 -5 0 -10 5 -10 10 0 6 5
10 10 10 6 0 10 -4 10 -10z m-35 -10 c3 -5 2 -10 -4 -10 -5 0 -13 5 -16 10 -3
6 -2 10 4 10 5 0 13 -4 16 -10z m425 -30 c0 -5 -5 -10 -11 -10 -5 0 -7 -4 -4
-10 3 -5 1 -10 -4 -10 -13 0 -13 3 -5 24 7 18 24 22 24 6z m599 -92 c-35 -45
-49 -58 -62 -58 -9 0 41 69 63 87 31 25 30 11 -1 -29z m-433 -86 c-4 -3 -11 0
-16 8 -15 24 -11 33 6 15 9 -9 13 -19 10 -23z m224 -2 c0 -5 -2 -10 -4 -10 -3
0 -8 5 -11 10 -3 6 -1 10 4 10 6 0 11 -4 11 -10z m20 -25 c-7 -8 -17 -15 -22
-15 -6 0 -5 7 2 15 7 8 17 15 22 15 6 0 5 -7 -2 -15z m-105 -25 c3 -5 -1 -10
-9 -10 -9 0 -16 5 -16 10 0 6 4 10 9 10 6 0 13 -4 16 -10z m-38 -6 c-3 -3 -12
-4 -19 -1 -8 3 -5 6 6 6 11 1 17 -2 13 -5z m-182 -24 c-3 -5 -11 -10 -16 -10
-6 0 -7 5 -4 10 3 6 11 10 16 10 6 0 7 -4 4 -10z"/>
<path d="M2670 4864 c0 -12 7 -24 15 -28 19 -7 47 3 39 15 -3 5 -10 7 -15 3
-6 -3 -17 2 -24 12 -14 18 -14 18 -15 -2z"/>
<path d="M3590 4872 c0 -12 19 -26 26 -19 2 2 -2 10 -11 17 -9 8 -15 8 -15 2z"/>
<path d="M4070 4873 c0 -5 11 -9 25 -9 14 -1 25 2 25 7 0 5 -11 9 -25 9 -14 0
-25 -3 -25 -7z"/>
<path d="M1257 4854 c3 -8 12 -13 20 -10 8 3 19 6 24 6 5 0 9 5 9 10 0 6 -13
10 -30 10 -22 0 -28 -4 -23 -16z"/>
<path d="M3800 4861 c0 -5 5 -13 10 -16 6 -3 10 -2 10 4 0 5 -4 13 -10 16 -5
3 -10 2 -10 -4z"/>
<path d="M4320 4857 c0 -10 8 -17 18 -17 9 0 13 4 7 8 -5 4 -13 11 -17 16 -5
5 -8 2 -8 -7z"/>
<path d="M4365 4860 c-3 -5 -2 -10 4 -10 5 0 13 5 16 10 3 6 2 10 -4 10 -5 0
-13 -4 -16 -10z"/>
<path d="M4418 4849 c-15 -15 -15 -19 -3 -19 8 0 19 9 25 20 13 25 1 25 -22
-1z"/>
<path d="M3045 4850 c3 -5 8 -10 11 -10 2 0 4 5 4 10 0 6 -5 10 -11 10 -5 0
-7 -4 -4 -10z"/>
<path d="M3551 4837 c-13 -21 -12 -21 5 -5 10 10 16 20 13 22 -3 3 -11 -5 -18
-17z"/>
<path d="M4043 4845 c-7 -7 -18 -15 -25 -18 -7 -2 -9 -8 -5 -13 4 -4 17 2 29
14 12 12 20 23 17 26 -2 2 -9 -2 -16 -9z"/>
<path d="M4280 4851 c0 -5 5 -13 10 -16 6 -3 10 -2 10 4 0 5 -4 13 -10 16 -5
3 -10 2 -10 -4z"/>
<path d="M4545 4840 c3 -5 8 -10 11 -10 2 0 4 5 4 10 0 6 -5 10 -11 10 -5 0
-7 -4 -4 -10z"/>
<path d="M2583 4819 c-23 -12 -57 -38 -76 -58 -33 -36 -77 -50 -77 -24 0 20
-17 15 -23 -6 -2 -11 0 -24 6 -30 8 -8 4 -11 -13 -12 -14 -1 -31 -1 -37 0 -7
1 -13 -3 -13 -9 0 -5 5 -10 10 -10 6 0 10 -4 10 -10 0 -5 -5 -10 -11 -10 -13
0 -69 -58 -69 -71 0 -5 -12 -9 -26 -9 -21 0 -24 -3 -16 -13 9 -10 3 -21 -24
-46 -19 -19 -33 -35 -30 -38 2 -2 -7 -31 -20 -65 -14 -33 -22 -68 -19 -78 3
-11 0 -20 -11 -24 -12 -5 -14 -9 -5 -20 9 -11 7 -15 -7 -18 -11 -3 -21 -15
-25 -27 -3 -11 -1 -18 4 -15 16 10 22 -26 7 -44 -16 -18 -30 -86 -21 -96 4 -3
5 -38 4 -76 l-2 -71 28 6 28 6 -25 -15 c-22 -13 -23 -15 -7 -21 12 -5 16 -14
12 -26 -7 -20 2 -24 24 -10 10 6 10 13 2 29 -6 11 -8 28 -5 36 4 9 1 22 -5 30
-6 7 -8 16 -4 19 11 12 23 8 23 -7 0 -24 25 -37 51 -27 23 8 23 9 5 17 -19 7
-19 8 0 15 17 7 17 8 2 8 -10 1 -18 4 -19 9 0 4 -2 17 -3 30 -2 12 5 40 15 62
19 43 31 53 22 20 -5 -19 -4 -19 28 -6 21 9 35 22 37 35 2 12 7 21 12 21 5 0
11 9 15 19 3 10 19 24 35 31 17 7 30 17 30 22 0 7 -5 6 -13 -1 -11 -9 -14 -4
-15 25 -1 27 2 35 12 31 20 -8 28 4 15 20 -9 10 -8 13 5 13 9 0 16 7 16 16 0
8 -4 13 -8 10 -4 -2 -9 5 -9 16 -2 26 21 50 41 42 9 -3 16 -2 16 4 0 6 -6 12
-12 14 -8 3 -4 10 11 17 14 8 21 9 17 2 -4 -6 -2 -11 3 -11 6 0 11 7 11 16 0
9 9 27 20 41 18 23 24 23 21 1 0 -3 14 -2 32 3 17 5 34 9 36 9 2 0 1 9 -2 20
-3 13 -1 18 6 13 7 -4 20 -8 30 -8 10 -1 23 -8 29 -16 8 -11 9 -10 4 4 -4 13
0 17 18 17 33 0 51 -23 31 -40 -25 -21 -17 -34 10 -16 25 16 45 14 45 -5 0 -5
-6 -9 -14 -9 -9 0 -12 -7 -9 -20 3 -11 0 -20 -6 -20 -5 0 -8 -7 -5 -15 4 -8 1
-15 -5 -15 -6 0 -11 -4 -11 -10 0 -5 10 -10 23 -10 l22 -1 -22 -18 c-13 -11
-23 -24 -23 -30 0 -6 -6 -11 -14 -11 -7 0 -19 -7 -26 -15 -7 -9 -19 -14 -27
-11 -7 3 -34 -6 -58 -20 -25 -14 -50 -22 -55 -19 -5 3 -16 -5 -24 -17 -9 -12
-18 -19 -22 -16 -6 7 -12 3 -93 -69 -52 -47 -77 -84 -72 -112 2 -10 -4 -12
-23 -7 -31 8 -35 -9 -6 -24 11 -6 20 -20 20 -32 0 -15 3 -18 13 -10 8 7 17 6
30 -3 12 -8 14 -15 8 -20 -6 -3 -11 -1 -11 4 0 6 -4 11 -10 11 -21 0 -8 -22
39 -70 27 -28 57 -50 66 -50 8 0 18 -7 21 -15 4 -9 11 -15 18 -14 28 3 45 -3
70 -26 14 -13 26 -22 26 -20 0 2 11 -7 25 -21 14 -14 25 -29 25 -34 0 -6 4
-10 9 -10 5 0 11 -14 15 -30 3 -17 17 -42 31 -56 14 -14 25 -34 25 -45 0 -11
5 -17 10 -14 6 3 10 15 10 25 0 10 4 20 9 22 5 2 11 23 14 48 2 25 8 53 12 63
6 13 3 16 -9 11 -10 -4 -18 0 -22 12 -3 11 -9 27 -14 36 -6 11 -5 18 3 21 8 3
4 13 -11 30 -16 17 -22 32 -17 46 3 11 1 29 -4 40 -9 16 -7 20 13 25 33 8 41
47 15 67 -20 15 -20 18 -6 40 19 31 30 79 18 79 -5 0 -12 -12 -15 -26 -5 -20
-10 -24 -18 -16 -9 9 -7 16 5 30 9 10 17 26 17 35 0 22 21 67 31 67 5 0 6 7 3
15 -9 22 18 19 60 -6 21 -12 36 -16 36 -10 0 7 -7 14 -16 18 -8 3 -13 12 -10
19 3 7 -4 16 -15 19 -10 4 -19 10 -19 15 0 16 41 22 71 9 26 -10 30 -17 27
-45 -1 -18 1 -36 4 -39 4 -4 5 -12 2 -18 -2 -7 4 -102 14 -212 36 -399 10
-518 -207 -955 -70 -140 -140 -284 -155 -320 -16 -36 -37 -83 -46 -105 -73
-168 -100 -225 -161 -336 -69 -125 -106 -206 -98 -213 2 -2 32 3 67 12 42 11
61 21 57 29 -2 7 0 13 5 13 6 0 10 -4 10 -10 0 -17 85 -11 191 15 56 13 106
22 110 19 8 -4 127 8 209 22 19 3 53 8 75 11 22 2 47 7 55 10 8 3 24 7 35 8
45 6 111 29 125 42 13 13 10 14 -25 9 l-40 -6 35 16 c19 9 67 19 105 21 59 4
85 0 160 -25 119 -39 222 -64 445 -106 215 -41 296 -52 477 -66 135 -11 152
-15 433 -95 263 -75 368 -135 490 -276 110 -128 153 -210 205 -389 15 -52 57
-191 92 -308 35 -117 67 -234 70 -260 10 -88 -30 -172 -83 -172 -16 0 -23 -7
-26 -30 -2 -16 0 -32 6 -34 7 -3 5 -9 -4 -15 -13 -9 -13 -11 3 -11 32 0 18
-19 -20 -27 -56 -11 -229 -8 -298 6 -171 34 -179 40 -184 126 -2 27 -6 54 -9
60 -4 5 -7 15 -7 20 0 6 -8 24 -17 42 -15 27 -16 40 -7 85 17 85 16 110 -6
102 -11 -5 -15 1 -15 20 0 20 -9 30 -40 45 -23 11 -55 23 -73 26 -18 4 -38 12
-44 17 -7 6 -20 8 -28 4 -8 -3 -15 0 -15 6 0 7 -13 9 -35 5 -19 -3 -37 -2 -40
3 -3 4 -17 7 -33 5 -15 -1 -30 2 -34 8 -5 8 -20 8 -55 0 -26 -6 -50 -8 -53 -5
-3 4 -119 8 -259 9 -140 2 -263 5 -273 9 -38 12 -142 13 -156 1 -14 -11 -32
-19 -127 -52 -27 -10 -58 -22 -67 -26 -10 -5 -25 -9 -34 -9 -10 0 -14 -6 -9
-19 3 -12 0 -21 -10 -25 -8 -3 -15 -1 -15 4 0 6 -9 10 -20 10 -11 0 -20 -4
-20 -10 0 -5 5 -10 10 -10 22 0 8 -18 -27 -33 -21 -9 -76 -37 -122 -62 -83
-46 -109 -51 -78 -17 23 25 21 31 -8 42 -17 6 -40 4 -77 -6 -72 -22 -93 -41
-94 -87 -2 -31 -9 -45 -35 -67 -32 -27 -146 -94 -161 -95 -3 0 -9 -3 -13 -7
-4 -4 -12 -5 -19 -2 -7 3 -18 -8 -26 -23 -7 -15 -15 -23 -17 -16 -7 19 -42 -7
-36 -26 4 -13 3 -13 -5 -2 -7 9 -16 11 -28 6 -25 -12 -83 -12 -81 -1 1 5 -4
11 -10 13 -8 3 -15 -11 -19 -38 -7 -44 -57 -103 -113 -133 -87 -48 -112 -58
-136 -52 -28 7 -95 62 -95 79 0 27 77 99 151 142 83 48 119 56 157 36 29 -15
29 3 0 24 l-23 17 22 -7 c16 -4 22 -3 19 7 -2 7 27 40 66 73 39 33 128 117
197 186 88 88 156 145 227 192 114 74 141 105 123 139 -10 18 -8 24 11 40 12
10 30 18 39 18 24 0 57 25 43 34 -6 3 -14 1 -17 -4 -5 -7 -11 -5 -19 6 -11 15
-21 15 -100 4 -62 -9 -95 -19 -114 -35 -15 -12 -60 -34 -101 -50 -60 -23 -78
-26 -93 -16 -12 7 -25 8 -36 3 -9 -5 -23 -7 -30 -5 -7 3 -18 0 -25 -5 -7 -5
-27 -13 -44 -17 -18 -3 -33 -11 -33 -16 0 -6 -6 -7 -12 -2 -22 13 -40 12 -64
-4 -13 -8 -30 -13 -38 -10 -8 3 -17 -1 -20 -10 -4 -8 -12 -13 -20 -10 -7 3
-17 2 -22 -3 -5 -4 -27 -13 -49 -20 -22 -7 -58 -20 -80 -30 -85 -38 -113 -50
-122 -50 -4 0 -20 -7 -35 -14 -16 -8 -36 -15 -45 -15 -10 0 -30 -2 -45 -4 -15
-2 -25 0 -22 4 9 15 -23 10 -36 -6 -7 -8 -21 -15 -31 -15 -10 0 -16 -5 -14
-12 4 -12 -53 -45 -88 -52 -6 -2 -25 -9 -41 -16 -27 -13 -29 -13 -50 15 -36
51 -133 142 -175 166 -59 33 -65 71 -13 90 32 12 69 -12 92 -58 17 -35 65 -64
55 -34 -7 23 15 41 106 88 127 64 164 85 172 99 4 8 40 29 80 48 74 36 147 92
147 114 0 20 -47 19 -100 -4 -19 -9 -46 -20 -60 -26 -14 -6 -34 -15 -45 -21
-158 -85 -209 -108 -297 -132 l-48 -13 0 33 c0 19 5 37 10 40 6 3 10 17 10 31
0 30 44 158 65 191 19 28 7 30 -26 4 -46 -35 -88 -51 -139 -51 -28 0 -50 5
-50 11 0 5 -5 7 -11 3 -9 -5 -10 1 -5 20 7 28 -2 34 -22 14 -9 -9 -12 -9 -12
0 0 17 -26 15 -44 -4 -13 -12 -41 -15 -161 -13 -79 1 -142 5 -140 9 3 4 -2 11
-11 14 -12 4 -15 2 -10 -9 6 -16 -3 -19 -28 -9 -9 3 -14 9 -11 13 2 4 -10 8
-27 8 -20 0 -37 8 -49 21 -12 15 -19 18 -23 10 -3 -10 -8 -9 -19 4 -9 11 -21
15 -37 11 -18 -5 -21 -3 -15 7 6 10 4 12 -10 7 -11 -5 -23 -1 -32 10 -10 13
-16 15 -19 6 -8 -19 -22 -16 -20 3 0 9 -5 19 -11 21 -7 3 -13 -3 -13 -12 0
-13 -8 -11 -37 13 -21 16 -43 27 -50 25 -6 -2 -14 5 -18 16 -3 12 -11 21 -17
21 -5 0 -8 7 -4 15 3 8 1 15 -5 15 -5 0 -20 9 -32 20 -18 17 -20 24 -9 40 16
25 15 30 -3 30 -8 0 -15 5 -15 10 0 6 5 10 10 10 6 0 10 5 10 11 0 5 -5 7 -11
3 -8 -4 -9 0 -4 15 4 13 2 21 -5 21 -7 0 -14 -9 -17 -20 -5 -21 -15 -25 -26
-13 -4 3 0 15 10 25 15 17 15 18 0 18 -10 0 -17 7 -17 16 0 12 -7 15 -25 12
-16 -4 -25 -1 -25 8 0 7 -3 19 -6 27 -4 11 2 17 18 20 17 3 15 5 -9 6 -24 1
-33 -3 -33 -15 0 -8 -4 -12 -10 -9 -5 3 -10 14 -10 25 0 10 -8 21 -17 24 -15
6 -15 8 0 23 15 16 18 15 42 -7 14 -13 25 -20 25 -15 0 13 -42 45 -61 45 -10
0 -24 -7 -33 -15 -24 -24 -46 -9 -39 27 4 22 3 29 -5 24 -7 -4 -12 -1 -12 7 0
8 -9 17 -20 20 -22 6 -38 -9 -18 -16 8 -2 9 -8 4 -13 -5 -5 -11 -4 -13 3 -2 7
-12 9 -21 6 -9 -3 -5 5 11 18 31 28 36 44 8 29 -35 -18 -59 -12 -73 20 -9 21
-18 28 -30 24 -12 -3 -18 0 -18 10 0 9 -8 16 -17 17 -11 0 -13 3 -5 6 17 7 15
23 -3 23 -8 0 -15 -4 -15 -10 0 -5 -4 -10 -10 -10 -5 0 -10 7 -10 15 0 8 -5
15 -11 15 -6 0 -8 8 -4 19 6 18 2 20 -45 16 -34 -3 -49 -1 -44 6 3 6 12 8 20
5 24 -9 15 21 -12 43 -30 24 -50 27 -58 9 -3 -7 -3 -3 0 10 3 13 1 22 -6 22
-6 0 -10 8 -8 17 2 13 -4 18 -26 18 -15 1 -34 9 -42 19 -12 17 -9 23 29 60 23
22 46 41 50 41 4 0 12 7 18 15 9 13 10 12 5 -2 -9 -29 10 -20 39 18 24 31 31
34 58 29 21 -4 27 -3 18 3 -8 6 -11 18 -7 29 4 13 -2 28 -18 46 -18 19 -20 27
-10 31 7 3 16 1 19 -4 4 -6 12 -10 18 -10 7 0 3 7 -8 16 -16 12 -18 18 -7 34
7 11 8 20 3 20 -6 0 -14 -7 -19 -16 -6 -10 -14 -14 -22 -9 -10 6 -9 10 4 17
14 8 15 13 5 24 -18 22 -3 28 23 10 26 -18 38 -20 38 -6 0 6 -6 10 -13 10 -15
0 -51 39 -43 47 3 3 12 1 19 -5 18 -15 30 -3 16 14 -14 17 -3 35 16 27 16 -6
21 12 5 22 -5 3 -7 12 -3 20 3 9 -1 15 -8 15 -10 0 -10 3 -2 11 9 9 5 22 -15
51 -21 32 -24 43 -15 57 9 14 8 22 -4 34 -15 14 -15 18 1 42 17 26 17 27 -4
20 -20 -6 -21 -5 -11 14 10 18 9 21 -6 21 -15 0 -14 3 6 19 14 11 20 21 13 25
-6 3 -12 1 -14 -5 -2 -7 -10 -10 -17 -8 -11 4 -10 8 3 21 16 16 22 38 10 38
-3 0 -15 -10 -26 -22 -20 -23 -20 -18 -2 27 4 9 3 15 -2 14 -20 -3 -28 2 -16
9 10 7 10 15 1 38 -7 16 -11 43 -11 59 l1 30 -10 -32 c-13 -43 -27 -42 -23 2
2 32 0 35 -24 36 -15 1 -32 1 -39 0 -6 -1 -14 3 -18 9 -3 6 0 7 9 4 20 -8 20
3 2 22 -10 9 -17 10 -21 4 -4 -6 -11 -8 -16 -4 -6 3 -4 15 6 30 8 13 11 24 6
24 -5 0 -11 -7 -15 -15 -7 -19 -26 -20 -26 -1 0 8 -4 18 -10 21 -7 4 -10 -589
-10 -1749 l0 -1756 3000 0 3000 0 -1 1938 c0 1065 -4 1957 -7 1982 -5 31 -10
40 -14 28 -8 -19 -38 -25 -38 -8 0 6 -5 10 -11 10 -14 0 -39 -25 -39 -39 0
-19 -22 -12 -27 9 -3 11 -9 18 -13 15 -5 -3 -12 -1 -15 5 -5 8 -11 7 -21 -1
-8 -6 -14 -8 -14 -3 0 4 -6 0 -13 -10 -13 -17 -47 -13 -47 6 0 5 -10 6 -21 3
-13 -5 -25 -2 -30 6 -4 7 -12 10 -16 5 -4 -5 -2 -11 5 -13 6 -3 12 -9 12 -14
0 -17 -15 -9 -33 19 -15 22 -18 23 -14 6 4 -17 0 -20 -20 -18 -31 3 -55 -5
-47 -17 3 -5 0 -9 -5 -9 -6 0 -11 3 -11 8 0 4 -7 16 -15 26 -12 16 -17 17 -30
6 -8 -7 -22 -10 -30 -6 -9 3 -15 0 -15 -9 0 -20 -17 -19 -28 2 -8 14 -12 13
-27 -10 -9 -15 -23 -27 -31 -27 -9 0 -11 -6 -7 -17 6 -16 5 -16 -10 -5 -14 12
-20 10 -44 -12 -19 -18 -35 -25 -50 -21 -13 3 -37 -3 -58 -15 -20 -11 -42 -20
-50 -20 -8 0 -15 -4 -15 -10 0 -5 -7 -10 -16 -10 -12 0 -14 -3 -6 -13 7 -8 7
-18 2 -27 -10 -16 -12 -15 -28 15 -10 18 -12 18 -18 -12 -7 -35 -13 -40 -32
-21 -8 8 -17 5 -36 -13 -14 -13 -26 -29 -26 -35 0 -13 -32 -24 -72 -24 -15 0
-30 -5 -33 -10 -4 -7 3 -8 22 -4 25 6 26 5 15 -9 -8 -9 -24 -14 -43 -12 -32 4
-34 2 -19 -26 14 -24 -5 -26 -19 -1 -10 16 -10 16 -11 0 0 -10 -7 -18 -15 -18
-8 0 -15 7 -15 15 0 9 -6 12 -15 9 -13 -5 -13 -9 -3 -22 11 -13 10 -14 -10 -8
-13 5 -22 3 -22 -3 0 -6 5 -11 12 -11 13 0 -22 -29 -36 -30 -4 0 -5 7 -2 15 3
8 9 22 12 30 10 25 -12 17 -26 -10 -15 -28 -35 -33 -44 -10 -3 8 -1 15 4 15 5
0 14 9 20 20 14 26 6 25 -20 -2 -20 -21 -20 -21 -20 -2 0 12 -6 21 -14 21 -8
0 -11 -8 -8 -19 2 -10 8 -18 13 -18 5 0 9 -5 9 -11 0 -17 24 -36 40 -31 12 4
13 2 3 -9 -10 -10 -16 -9 -31 4 -10 10 -37 18 -60 20 -22 1 -44 6 -48 10 -4 4
-14 7 -23 7 -14 -1 -14 -2 2 -14 24 -19 22 -23 -14 -24 -52 -1 -79 14 -80 45
l-1 28 -12 -27 -12 -28 -34 19 c-19 10 -34 26 -34 34 1 13 -3 14 -25 4 -14 -6
-34 -17 -43 -25 -16 -13 -18 -13 -18 -1 0 8 5 20 11 26 8 8 8 13 0 17 -6 4
-11 2 -11 -3 0 -19 -28 -12 -43 10 -12 17 -21 19 -50 14 -29 -6 -39 -3 -53 14
-10 12 -24 21 -32 21 -7 0 -15 7 -18 15 -4 9 -11 15 -18 14 -26 -3 -35 2 -30
16 4 8 1 15 -5 15 -6 0 -11 -4 -11 -9 0 -5 -7 -11 -14 -14 -11 -4 -13 -1 -9
10 5 12 2 15 -8 11 -19 -7 -44 28 -28 38 6 4 1 11 -13 19 -15 7 -27 8 -35 2
-12 -9 -17 -3 -14 17 1 5 -7 6 -17 4 -27 -8 -52 9 -33 21 9 6 10 11 2 15 -6 4
-11 3 -11 -2 0 -6 -9 -8 -20 -5 -11 3 -20 11 -20 18 0 8 -15 16 -32 20 -18 4
-43 13 -56 21 -12 8 -26 12 -31 9 -5 -2 -11 1 -14 8 -3 7 -23 19 -46 27 -23 7
-41 17 -41 22 0 4 -11 8 -25 8 -14 0 -25 5 -25 10 0 6 -8 10 -18 10 -10 0 -27
7 -38 15 -12 8 -24 12 -27 9 -3 -3 -16 2 -29 11 l-23 17 28 -5 c15 -2 27 0 27
4 0 5 -7 9 -15 9 -8 0 -15 5 -15 11 0 6 -7 8 -15 5 -46 -19 -50 -19 -37 -5 17
18 15 30 -3 23 -8 -4 -15 -1 -15 5 0 6 5 11 10 11 6 0 10 4 10 8 0 4 -17 6
-37 4 -26 -2 -34 0 -24 6 19 14 5 32 -26 32 -21 0 -23 3 -14 14 8 9 8 16 2 20
-5 4 -14 -1 -19 -10 -7 -13 -11 -14 -17 -3 -5 8 -4 14 3 17 7 2 -1 16 -20 34
-26 25 -36 28 -50 19 -25 -15 -33 -14 -18 4 10 12 9 16 -6 22 -11 3 -21 9 -24
12 -3 3 -15 12 -28 19 -18 10 -27 11 -38 1 -8 -6 -18 -9 -21 -5 -4 4 -1 11 7
16 13 8 12 10 -2 10 -9 0 -18 -6 -20 -12 -4 -10 -10 -10 -32 0 -25 11 -26 15
-21 64 4 43 3 48 -5 29 -6 -14 -12 -42 -13 -62 -2 -35 -4 -38 -27 -32 -14 3
-46 15 -71 26 -39 18 -46 25 -45 49 1 15 4 28 9 28 4 0 7 12 7 27 0 15 10 37
21 49 l21 23 -22 45 c-12 25 -26 46 -31 46 -5 0 -9 8 -9 17 0 13 3 14 12 5 14
-14 28 -16 28 -3 0 5 -13 13 -28 19 -23 8 -31 6 -39 -7 -10 -15 -12 -15 -29 1
-16 16 -16 17 3 12 12 -3 24 -1 27 5 4 5 13 8 21 4 10 -3 15 1 15 15 0 28 -26
35 -63 15 -43 -23 -63 -24 -83 -2 -10 11 -12 19 -6 19 7 0 12 9 12 20 0 13 7
20 19 20 24 0 45 25 35 42 -5 7 -7 20 -6 29 2 10 -6 19 -22 23 -13 3 -30 8
-38 10 -7 3 -32 -4 -55 -15z m-49 -74 c-4 -8 -11 -15 -16 -15 -6 0 -5 6 2 15
7 8 14 15 16 15 2 0 1 -7 -2 -15z m226 -75 c0 -5 -5 -10 -11 -10 -5 0 -7 5 -4
10 3 6 8 10 11 10 2 0 4 -4 4 -10z m-190 -140 c0 -5 -4 -10 -10 -10 -5 0 -10
5 -10 10 0 6 5 10 10 10 6 0 10 -4 10 -10z m200 -110 c0 -5 -4 -10 -10 -10 -5
0 -10 5 -10 10 0 6 5 10 10 10 6 0 10 -4 10 -10z m180 -140 c0 -5 -5 -10 -11
-10 -5 0 -7 5 -4 10 3 6 8 10 11 10 2 0 4 -4 4 -10z m-2 -102 c14 -14 16 -58
3 -58 -5 0 -14 7 -21 15 -7 8 -9 15 -6 15 4 0 2 9 -4 20 -8 15 -8 20 3 20 7 0
18 -5 25 -12z m-658 -22 c0 -3 -4 -8 -10 -11 -5 -3 -10 -1 -10 4 0 6 5 11 10
11 6 0 10 -2 10 -4z m180 -19 c0 -8 -3 -17 -7 -21 -13 -12 -11 -35 3 -47 25
-21 15 -28 -33 -25 -27 2 -51 4 -55 5 -15 2 -8 30 10 43 11 7 24 23 31 36 13
24 51 31 51 9z m2970 -242 c0 -8 -7 -15 -15 -15 -26 0 -18 20 13 29 1 1 2 -6
2 -14z m300 11 c0 -11 -19 -15 -25 -6 -3 5 1 10 9 10 9 0 16 -2 16 -4z m-135
-15 c3 -5 1 -12 -5 -16 -5 -3 -10 1 -10 9 0 18 6 21 15 7z m95 -11 c0 -5 -2
-10 -4 -10 -3 0 -8 5 -11 10 -3 6 -1 10 4 10 6 0 11 -4 11 -10z m-435 -60 c3
-5 -1 -10 -10 -10 -9 0 -13 5 -10 10 3 6 8 10 10 10 2 0 7 -4 10 -10z m-35
-24 c0 -11 -19 -15 -25 -6 -3 5 1 10 9 10 9 0 16 -2 16 -4z m-180 -106 c0 -5
-5 -10 -11 -10 -5 0 -7 5 -4 10 3 6 8 10 11 10 2 0 4 -4 4 -10z m-849 -83 c-1
-12 -15 -9 -19 4 -3 6 1 10 8 8 6 -3 11 -8 11 -12z m569 -97 c0 -5 -4 -10 -10
-10 -5 0 -10 5 -10 10 0 6 5 10 10 10 6 0 10 -4 10 -10z m-4650 -120 c0 -5 -4
-10 -9 -10 -6 0 -13 5 -16 10 -3 6 1 10 9 10 9 0 16 -4 16 -10z m170 -450 c0
-5 -4 -10 -10 -10 -5 0 -10 5 -10 10 0 6 5 10 10 10 6 0 10 -4 10 -10z m-30
-4 c0 -3 -4 -8 -10 -11 -5 -3 -10 -1 -10 4 0 6 5 11 10 11 6 0 10 -2 10 -4z
m20 -36 c0 -5 -4 -10 -10 -10 -5 0 -10 5 -10 10 0 6 5 10 10 10 6 0 10 -4 10
-10z m-5 -40 c-3 -5 -11 -10 -16 -10 -6 0 -7 5 -4 10 3 6 11 10 16 10 6 0 7
-4 4 -10z m2402 -285 c-5 -30 -3 -35 13 -35 14 0 21 10 26 35 5 31 10 35 36
35 28 0 29 -2 23 -31 -5 -23 -3 -34 10 -43 23 -16 16 -51 -10 -51 -30 0 -33
-42 -3 -47 16 -2 23 -10 23 -28 0 -21 -6 -26 -32 -28 -26 -3 -32 -8 -35 -30
-2 -21 -9 -28 -32 -30 -27 -3 -29 -2 -23 28 6 28 5 31 -16 28 -16 -2 -23 -11
-25 -30 -3 -24 -8 -28 -33 -28 -29 0 -30 2 -24 30 4 19 3 30 -4 30 -6 0 -11
13 -11 29 0 21 6 30 21 34 26 7 22 44 -4 39 -13 -2 -17 4 -17 27 0 25 4 30 27
33 19 2 29 10 31 23 6 39 12 45 38 45 25 0 26 -2 21 -35z m315 25 c36 -10 68
-41 68 -66 0 -21 -69 -22 -87 -2 -18 20 -54 21 -60 1 -3 -6 20 -18 54 -28 73
-21 103 -48 103 -92 0 -47 -16 -72 -55 -89 -79 -33 -172 -6 -193 55 l-11 31
43 0 c27 0 48 -6 56 -15 16 -19 54 -19 69 -1 10 11 7 17 -11 30 -12 9 -32 16
-44 16 -11 0 -36 10 -55 23 -62 41 -48 115 25 136 42 12 55 13 98 1z m560 -16
c57 -29 78 -146 38 -212 -52 -85 -211 -80 -258 9 -7 14 -11 50 -10 87 l3 62
-37 0 -38 0 0 -105 0 -105 -45 0 -45 0 0 105 0 105 -45 0 c-45 0 -45 0 -45 35
l0 35 135 0 135 0 0 -27 c0 -24 1 -25 13 -10 32 44 133 55 199 21z m848 -4 c0
-28 -2 -30 -40 -30 -38 0 -40 2 -40 30 0 28 2 30 40 30 38 0 40 -2 40 -30z
m578 -15 l-3 -45 47 0 48 0 0 45 0 45 45 0 45 0 0 -132 1 -133 48 130 47 130
54 0 53 0 49 -130 c26 -71 48 -133 48 -137 0 -5 -20 -8 -45 -8 -39 0 -45 3
-51 25 -6 22 -11 25 -55 25 -44 0 -49 -3 -55 -25 -6 -24 -9 -25 -95 -25 l-89
0 0 55 0 55 -51 0 -50 0 2 -52 3 -53 -42 0 -43 0 -5 138 -6 137 52 0 52 0 -4
-45z m942 10 l0 -35 -70 0 c-40 0 -70 -4 -70 -10 0 -6 28 -10 65 -10 l65 0 0
-35 0 -35 -65 0 c-62 0 -65 -1 -65 -25 0 -23 3 -24 73 -27 l72 -3 3 -32 3 -33
-120 0 -120 0 -3 107 -3 106 -45 0 -45 0 -3 -106 -3 -107 -45 0 -45 0 3 105 3
104 -45 3 c-43 3 -45 4 -47 36 l-1 32 254 0 254 0 0 -35z m-2097 14 c28 -13
47 -48 47 -86 l0 -26 21 27 c19 24 27 26 90 26 90 0 109 -16 109 -94 l0 -54
38 5 c27 4 42 1 51 -11 15 -18 47 -21 57 -5 9 15 -10 25 -58 33 -69 11 -99 65
-58 106 29 29 139 29 166 -1 16 -17 16 -22 4 -29 -20 -13 -47 -12 -69 2 -20
12 -56 4 -47 -11 3 -4 24 -11 46 -14 58 -8 90 -31 90 -67 0 -45 -40 -70 -112
-70 -50 0 -63 4 -85 26 l-26 26 7 -26 c6 -24 4 -26 -29 -26 -22 0 -38 6 -41
15 -5 13 -8 13 -27 0 -31 -22 -93 -19 -117 5 -41 41 -11 85 69 100 63 12 69
16 52 33 -9 9 -18 9 -39 -3 -17 -10 -40 -13 -62 -10 -29 4 -39 1 -58 -22 -20
-24 -32 -28 -73 -28 l-49 0 0 -45 0 -45 -44 0 -45 0 -3 136 c-2 75 -1 138 1
140 9 9 172 3 194 -7z m-3613 -19 c0 -5 -4 -10 -10 -10 -5 0 -10 5 -10 10 0 6
5 10 10 10 6 0 10 -4 10 -10z m-90 -50 c0 -5 -5 -10 -11 -10 -5 0 -7 5 -4 10
3 6 8 10 11 10 2 0 4 -4 4 -10z m4280 -95 l0 -105 -40 0 -40 0 0 105 0 105 40
0 40 0 0 -105z m216 84 c15 -16 20 -40 23 -105 l3 -84 -35 0 c-22 0 -37 6 -41
16 -5 14 -7 14 -22 0 -21 -21 -92 -21 -116 1 -19 17 -23 49 -9 72 5 7 36 21
70 30 35 9 63 21 64 26 3 16 -38 18 -51 2 -15 -17 -82 -10 -82 9 0 8 9 23 20
34 30 30 149 29 176 -1z m114 11 c0 -7 6 -7 19 0 11 5 35 10 55 10 52 0 66
-26 66 -127 l0 -83 -40 0 -40 0 0 70 c0 54 -4 72 -15 76 -30 12 -45 -15 -45
-83 l0 -64 -37 3 -38 3 -3 103 -3 102 41 0 c22 0 40 -5 40 -10z m-4625 -30 c3
-5 -1 -10 -10 -10 -9 0 -13 5 -10 10 3 6 8 10 10 10 2 0 7 -4 10 -10z m25
-130 c0 -5 -7 -10 -16 -10 -8 0 -12 5 -9 10 3 6 10 10 16 10 5 0 9 -4 9 -10z
m80 -60 c0 -5 -2 -10 -4 -10 -3 0 -8 5 -11 10 -3 6 -1 10 4 10 6 0 11 -4 11
-10z m30 -70 c0 -5 -5 -10 -11 -10 -5 0 -7 5 -4 10 3 6 8 10 11 10 2 0 4 -4 4
-10z m2880 -14 c0 -3 -4 -8 -10 -11 -5 -3 -10 -1 -10 4 0 6 5 11 10 11 6 0 10
-2 10 -4z m-40 -16 c-20 -13 -33 -13 -25 0 3 6 14 10 23 10 15 0 15 -2 2 -10z
m-570 -90 c0 -6 -23 -9 -52 -9 l-53 2 40 7 c60 11 65 11 65 0z m-200 -20 c0
-5 -5 -10 -11 -10 -5 0 -7 5 -4 10 3 6 8 10 11 10 2 0 4 -4 4 -10z m-1605
-230 c-3 -5 -11 -10 -16 -10 -6 0 -7 5 -4 10 3 6 11 10 16 10 6 0 7 -4 4 -10z
m328 -444 c46 -19 134 -78 215 -143 21 -17 24 -24 15 -34 -14 -14 -48 6 -174
101 -48 36 -95 70 -105 77 -18 11 -18 12 -1 12 10 1 32 -5 50 -13z m-247 -181
c30 -22 87 -47 149 -66 137 -42 195 -64 263 -98 71 -36 89 -55 72 -75 -12 -15
-32 -12 -85 14 -11 5 -49 16 -83 24 -35 8 -72 22 -82 31 -10 9 -24 14 -29 10
-6 -3 -11 -1 -11 4 0 6 -11 11 -24 11 -14 0 -31 6 -38 13 -7 7 -34 22 -60 32
-27 11 -53 31 -62 47 -9 15 -30 37 -46 48 -29 20 -39 40 -22 40 5 0 31 -16 58
-35z m609 -185 c4 -6 -5 -20 -19 -31 -14 -11 -26 -27 -26 -35 0 -8 -5 -14 -11
-14 -6 0 -9 3 -7 8 39 81 50 93 63 72z m-105 -140 c13 -9 13 -10 0 -10 -8 0
-22 5 -30 10 -13 9 -13 10 0 10 8 0 22 -5 30 -10z m-758 -53 c6 -9 10 -8 17 3
9 12 11 12 16 -2 4 -9 13 -19 20 -22 9 -3 12 0 8 10 -5 14 -3 15 77 18 46 1
130 -22 153 -42 40 -35 59 -80 52 -122 -7 -41 -30 -55 -41 -25 -4 8 -10 12
-15 9 -15 -9 -10 -21 12 -27 18 -5 20 -10 13 -39 -17 -75 -3 -92 109 -133 39
-15 81 -31 92 -35 11 -5 45 -16 74 -26 67 -21 159 -62 166 -75 8 -11 7 -11
-33 0 -24 7 -32 7 -32 -3 0 -8 -8 -20 -17 -27 -15 -12 -16 -12 -11 2 7 18 -9
39 -29 39 -7 0 -13 -7 -13 -15 0 -18 -12 -19 -29 -2 -10 10 -11 9 -6 -5 9 -22
32 -30 39 -12 6 16 26 19 26 4 0 -18 -49 -35 -62 -22 -7 7 -17 8 -29 1 -15 -7
-17 -6 -13 6 5 11 2 14 -12 8 -11 -3 -22 -11 -25 -16 -4 -5 -16 0 -28 12 -11
11 -26 18 -33 16 -7 -3 -22 6 -32 20 -17 22 -20 23 -30 9 -11 -14 -16 -12 -44
20 -17 20 -36 36 -41 36 -6 0 1 -12 15 -27 14 -16 31 -37 36 -48 11 -19 10
-20 -10 -2 -11 10 -21 14 -23 8 -2 -6 -19 3 -38 20 -19 16 -31 32 -28 36 4 3
16 -6 28 -20 11 -15 26 -27 32 -27 6 0 -5 16 -23 35 -19 20 -36 32 -38 26 -2
-5 -12 -7 -22 -4 -14 4 -20 0 -20 -11 0 -9 6 -13 14 -10 10 4 14 -1 13 -15 -1
-19 -2 -20 -22 -3 -11 9 -26 25 -33 35 -23 30 -34 18 -12 -13 27 -38 13 -40
-16 -2 -12 15 -25 24 -28 21 -7 -7 52 -79 65 -79 6 0 7 5 4 10 -3 6 -1 10 4
10 6 0 11 -4 11 -9 0 -15 33 -22 42 -9 5 8 8 9 8 2 0 -6 -6 -17 -14 -23 -10
-9 -16 -8 -26 4 -16 19 -33 9 -25 -14 3 -10 -1 -24 -10 -31 -9 -8 -15 -8 -15
-2 0 6 4 13 10 17 14 8 0 37 -16 31 -8 -3 -11 0 -8 9 4 9 -1 13 -14 12 -17 -1
-19 -4 -10 -22 6 -11 16 -23 22 -27 8 -6 7 -8 -1 -8 -7 0 -20 12 -30 26 -20
30 -81 94 -89 94 -11 0 18 -39 74 -99 34 -36 65 -61 71 -57 6 4 11 2 11 -4 0
-8 -9 -10 -26 -6 -16 4 -23 3 -20 -3 4 -5 2 -12 -4 -16 -5 -3 -10 -11 -10 -17
0 -7 4 -7 13 -1 6 6 26 13 42 16 17 4 24 4 17 1 -6 -3 -10 -10 -6 -15 3 -5 0
-9 -5 -9 -6 0 -11 -4 -11 -10 0 -5 7 -7 15 -4 8 4 15 1 15 -5 0 -6 7 -11 15
-11 13 0 13 -4 -2 -26 -17 -27 -17 -27 5 -15 12 6 22 16 22 21 0 6 9 2 20 -7
27 -23 25 -36 -2 -27 -19 6 -21 4 -12 -7 6 -8 14 -31 18 -51 l7 -38 -328 1
c-192 0 -320 4 -308 9 19 8 19 9 -4 9 -17 1 -22 5 -17 17 4 10 -6 32 -24 57
-36 50 -38 76 -5 111 13 14 21 26 17 27 -4 0 3 4 16 10 13 5 20 13 17 19 -4 6
7 15 24 21 17 6 31 15 31 19 0 5 9 12 20 15 11 3 20 13 20 21 0 11 6 13 21 9
18 -6 20 -4 14 14 -4 12 -2 21 4 21 6 0 11 -4 11 -10 0 -5 5 -10 10 -10 6 0
10 8 8 18 -2 12 3 16 15 14 15 -3 17 1 12 17 -4 13 -2 21 5 21 6 0 14 8 17 18
9 23 29 42 44 42 9 0 8 4 -1 15 -15 18 0 20 20 3 7 -7 6 -2 -3 12 -20 28 -23
50 -5 32 20 -20 32 -13 13 8 -12 13 -14 20 -5 20 10 0 10 3 1 14 -9 11 -9 15
1 18 11 4 11 8 0 20 -8 10 -9 19 -3 22 6 4 4 19 -5 41 -8 19 -13 38 -12 42 2
11 -22 61 -45 95 l-18 28 78 -6 c44 -2 81 -10 85 -17z m1548 -37 c26 -14 85
-115 104 -178 14 -49 14 -56 0 -78 -34 -51 -72 -24 -132 91 -11 22 -32 54 -46
70 -33 38 -33 58 2 84 31 23 45 25 72 11z m1148 -187 c2 -13 9 -23 17 -23 7 0
15 -4 17 -8 2 -4 21 -21 43 -37 62 -46 101 -81 225 -201 63 -61 130 -124 149
-140 18 -16 51 -65 73 -109 21 -44 45 -83 51 -87 7 -4 -22 -8 -63 -7 l-75 0
-45 56 c-25 31 -70 84 -100 119 -30 34 -68 79 -85 100 -42 54 -175 202 -224
248 -29 29 -37 42 -28 48 9 6 8 12 -6 22 -25 19 -11 48 22 44 18 -2 27 -10 29
-25z m-2278 -319 c0 -3 -7 -1 -15 6 -8 7 -15 17 -15 22 0 5 7 3 15 -6 8 -8 15
-18 15 -22z m295 6 c3 -5 1 -10 -4 -10 -6 0 -11 5 -11 10 0 6 2 10 4 10 3 0 8
-4 11 -10z m1449 -143 c32 -3 111 1 175 9 254 32 396 -2 544 -133 l37 -33
-346 0 -345 0 -60 53 c-51 45 -109 115 -109 132 0 3 10 -1 23 -9 12 -7 48 -16
81 -19z m-1859 -107 c-3 -5 -10 -10 -16 -10 -5 0 -9 5 -9 10 0 6 7 10 16 10 8
0 12 -4 9 -10z m19 -35 c3 -9 0 -15 -9 -15 -8 0 -15 7 -15 15 0 8 4 15 9 15 5
0 11 -7 15 -15z"/>
<path d="M2668 2479 c-24 -13 -23 -39 1 -39 20 0 37 28 24 41 -4 4 -16 3 -25
-2z"/>
<path d="M3432 2524 c-18 -12 -22 -25 -22 -64 0 -54 18 -80 54 -80 34 0 56 31
56 78 0 29 -6 48 -20 62 -24 24 -38 25 -68 4z"/>
<path d="M5293 2490 c-10 -39 -10 -40 17 -40 27 0 27 1 17 40 -6 22 -14 40
-17 40 -3 0 -11 -18 -17 -40z"/>
<path d="M3720 2500 c0 -33 15 -38 45 -16 25 18 13 46 -20 46 -21 0 -25 -5
-25 -30z"/>
<path d="M3962 2399 c-26 -10 -21 -29 7 -29 18 0 41 18 41 32 0 10 -19 9 -48
-3z"/>
<path d="M4513 2403 c-26 -5 -30 -21 -9 -29 17 -6 56 12 56 26 0 10 -8 11 -47
3z"/>
<path d="M660 834 c0 -17 22 -33 37 -27 8 3 19 0 24 -8 7 -11 9 -11 9 4 0 11
-8 17 -23 17 -13 0 -28 5 -35 12 -7 7 -12 8 -12 2z"/>
<path d="M640 800 c0 -5 5 -10 11 -10 5 0 7 5 4 10 -3 6 -8 10 -11 10 -2 0 -4
-4 -4 -10z"/>
<path d="M733 713 c4 -3 1 -13 -6 -21 -10 -13 -9 -14 3 -10 19 6 26 38 9 38
-7 0 -9 -3 -6 -7z"/>
<path d="M765 689 c-10 -15 3 -25 16 -12 7 7 7 13 1 17 -6 3 -14 1 -17 -5z"/>
<path d="M590 466 c0 -9 5 -16 10 -16 6 0 10 4 10 9 0 6 -4 13 -10 16 -5 3
-10 -1 -10 -9z"/>
<path d="M655 450 c3 -5 10 -10 16 -10 5 0 9 5 9 10 0 6 -7 10 -16 10 -8 0
-12 -4 -9 -10z"/>
<path d="M710 450 c0 -5 5 -10 11 -10 5 0 7 5 4 10 -3 6 -8 10 -11 10 -2 0 -4
-4 -4 -10z"/>
<path d="M745 440 c-3 -6 1 -7 9 -4 18 7 21 14 7 14 -6 0 -13 -4 -16 -10z"/>
<path d="M600 412 c0 -5 7 -15 15 -22 8 -7 15 -8 15 -2 0 5 -7 15 -15 22 -8 7
-15 8 -15 2z"/>
<path d="M640 382 c0 -12 19 -26 26 -19 2 2 -2 10 -11 17 -9 8 -15 8 -15 2z"/>
<path d="M570 339 c12 -16 24 -28 27 -25 6 6 -29 55 -40 56 -5 0 1 -14 13 -31z"/>
<path d="M1020 336 c0 -9 5 -16 10 -16 6 0 10 4 10 9 0 6 -4 13 -10 16 -5 3
-10 -1 -10 -9z"/>
<path d="M626 271 c-3 -5 1 -11 9 -15 9 -3 15 0 15 9 0 16 -16 20 -24 6z"/>
<path d="M120 200 c0 -5 4 -10 9 -10 6 0 13 5 16 10 3 6 -1 10 -9 10 -9 0 -16
-4 -16 -10z"/>
<path d="M720 160 c0 -5 5 -10 10 -10 6 0 10 5 10 10 0 6 -4 10 -10 10 -5 0
-10 -4 -10 -10z"/>
<path d="M170 102 c0 -5 7 -15 15 -22 8 -7 15 -8 15 -2 0 5 -7 15 -15 22 -8 7
-15 8 -15 2z"/>
<path d="M3665 4830 c3 -5 8 -10 11 -10 2 0 4 5 4 10 0 6 -5 10 -11 10 -5 0
-7 -4 -4 -10z"/>
<path d="M4128 4833 c6 -2 18 -2 25 0 6 3 1 5 -13 5 -14 0 -19 -2 -12 -5z"/>
<path d="M4189 4827 c7 -7 14 -8 21 -1 6 6 2 10 -12 11 -16 2 -18 -1 -9 -10z"/>
<path d="M3771 4814 c0 -11 3 -14 6 -6 3 7 2 16 -1 19 -3 4 -6 -2 -5 -13z"/>
<path d="M3853 4810 c-8 -12 -9 -21 -3 -25 6 -3 10 -1 10 5 0 7 9 9 23 6 12
-3 16 -3 10 0 -7 3 -13 12 -13 20 0 20 -13 17 -27 -6z"/>
<path d="M4066 4821 c-3 -4 2 -15 12 -23 15 -13 21 -13 42 -1 25 14 25 14 -10
11 -24 -2 -34 1 -32 10 2 14 -4 16 -12 3z"/>
<path d="M4445 4820 c-3 -5 1 -10 10 -10 9 0 13 5 10 10 -3 6 -8 10 -10 10 -2
0 -7 -4 -10 -10z"/>
<path d="M2715 4810 c3 -5 8 -10 11 -10 2 0 4 5 4 10 0 6 -5 10 -11 10 -5 0
-7 -4 -4 -10z"/>
<path d="M3455 4810 c3 -5 8 -10 11 -10 2 0 4 5 4 10 0 6 -5 10 -11 10 -5 0
-7 -4 -4 -10z"/>
<path d="M3806 4790 c9 -16 21 -30 27 -30 9 0 9 2 1 8 -6 4 -14 17 -18 30 -4
12 -11 22 -16 22 -5 0 -2 -13 6 -30z"/>
<path d="M4265 4810 c3 -5 8 -10 11 -10 2 0 4 5 4 10 0 6 -5 10 -11 10 -5 0
-7 -4 -4 -10z"/>
<path d="M4571 4804 c0 -11 3 -14 6 -6 3 7 2 16 -1 19 -3 4 -6 -2 -5 -13z"/>
<path d="M3935 4800 c-3 -5 -1 -10 4 -10 6 0 11 5 11 10 0 6 -2 10 -4 10 -3 0
-8 -4 -11 -10z"/>
<path d="M4495 4800 c-3 -5 -1 -10 4 -10 6 0 11 5 11 10 0 6 -2 10 -4 10 -3 0
-8 -4 -11 -10z"/>
<path d="M4530 4800 c0 -5 5 -10 10 -10 6 0 10 5 10 10 0 6 -4 10 -10 10 -5 0
-10 -4 -10 -10z"/>
<path d="M335 4790 c-3 -5 -1 -10 4 -10 6 0 11 5 11 10 0 6 -2 10 -4 10 -3 0
-8 -4 -11 -10z"/>
<path d="M2978 4750 c3 -30 6 -74 6 -97 -1 -24 3 -43 8 -43 13 0 8 122 -7 160
-14 35 -14 34 -7 -20z"/>
<path d="M3185 4790 c3 -5 8 -10 11 -10 2 0 4 5 4 10 0 6 -5 10 -11 10 -5 0
-7 -4 -4 -10z"/>
<path d="M3560 4789 c0 -5 5 -7 10 -4 6 3 10 8 10 11 0 2 -4 4 -10 4 -5 0 -10
-5 -10 -11z"/>
<path d="M4218 4793 c7 -3 16 -2 19 1 4 3 -2 6 -13 5 -11 0 -14 -3 -6 -6z"/>
<path d="M4723 4784 c-20 -21 -16 -42 3 -22 9 9 15 21 13 26 -2 6 -9 4 -16 -4z"/>
<path d="M2470 4765 c-13 -14 -19 -25 -13 -25 6 0 18 11 27 25 9 14 15 25 13
25 -2 0 -14 -11 -27 -25z"/>
<path d="M4053 4773 c9 -9 20 -13 24 -9 4 4 1 11 -7 16 -25 16 -35 11 -17 -7z"/>
<path d="M4345 4780 c-3 -5 -1 -10 4 -10 6 0 11 5 11 10 0 6 -2 10 -4 10 -3 0
-8 -4 -11 -10z"/>
<path d="M4680 4775 c-7 -9 -8 -15 -2 -15 5 0 12 7 16 15 3 8 4 15 2 15 -2 0
-9 -7 -16 -15z"/>
<path d="M4759 4759 c-10 -19 -9 -20 13 -14 29 9 31 11 23 24 -10 17 -23 13
-36 -10z"/>
<path d="M285 4760 c-3 -5 -1 -10 4 -10 6 0 11 5 11 10 0 6 -2 10 -4 10 -3 0
-8 -4 -11 -10z"/>
<path d="M3975 4759 c-11 -16 -1 -19 13 -3 7 8 8 14 3 14 -5 0 -13 -5 -16 -11z"/>
<path d="M4130 4760 c0 -5 5 -10 11 -10 5 0 7 5 4 10 -3 6 -8 10 -11 10 -2 0
-4 -4 -4 -10z"/>
<path d="M4620 4760 c0 -5 5 -10 11 -10 5 0 7 5 4 10 -3 6 -8 10 -11 10 -2 0
-4 -4 -4 -10z"/>
<path d="M5190 4750 c0 -11 7 -20 15 -20 17 0 18 2 9 24 -9 23 -24 20 -24 -4z"/>
<path d="M4996 4744 c-9 -24 -7 -52 5 -59 17 -11 22 2 9 25 -9 16 -9 25 1 36
7 8 7 14 1 14 -5 0 -13 -7 -16 -16z"/>
<path d="M2800 4740 c0 -5 5 -10 11 -10 5 0 7 5 4 10 -3 6 -8 10 -11 10 -2 0
-4 -4 -4 -10z"/>
<path d="M4175 4740 c3 -5 8 -10 11 -10 2 0 4 5 4 10 0 6 -5 10 -11 10 -5 0
-7 -4 -4 -10z"/>
<path d="M4802 4733 c-7 -7 -8 -13 -3 -13 16 0 41 12 41 19 0 13 -25 9 -38 -6z"/>
<path d="M5320 4740 c0 -5 5 -10 10 -10 6 0 10 5 10 10 0 6 -4 10 -10 10 -5 0
-10 -4 -10 -10z"/>
<path d="M4077 4733 c-4 -3 -7 -11 -7 -17 0 -6 5 -5 12 2 6 6 9 14 7 17 -3 3
-9 2 -12 -2z"/>
<path d="M4920 4725 c0 -18 -17 -20 -23 -2 -2 7 -8 8 -13 3 -5 -5 -4 -11 4
-13 6 -3 12 -11 12 -19 0 -8 5 -14 10 -14 6 0 10 6 10 13 0 18 37 40 43 24 2
-7 8 -8 13 -4 10 10 -14 27 -38 27 -10 0 -18 -7 -18 -15z"/>
<path d="M2785 4710 c9 -30 13 -35 21 -27 3 3 -2 16 -11 29 l-17 23 7 -25z"/>
<path d="M5155 4720 c-4 -6 -13 -9 -20 -6 -7 2 -16 -2 -19 -10 -6 -16 19 -20
29 -4 4 6 16 8 27 4 14 -4 19 -2 16 7 -6 17 -25 23 -33 9z"/>
<path d="M5275 4720 c3 -5 15 -10 26 -10 11 0 17 5 14 10 -3 6 -15 10 -26 10
-11 0 -17 -4 -14 -10z"/>
<path d="M3860 4710 c0 -5 7 -10 16 -10 8 0 12 5 9 10 -3 6 -10 10 -16 10 -5
0 -9 -4 -9 -10z"/>
<path d="M4105 4710 c-3 -5 -2 -10 4 -10 5 0 13 5 16 10 3 6 2 10 -4 10 -5 0
-13 -4 -16 -10z"/>
<path d="M5223 4705 c0 -11 -3 -31 -6 -45 -4 -14 -4 -19 -1 -12 3 6 11 12 17
12 7 0 18 9 25 20 11 17 10 20 -7 20 -11 0 -21 6 -24 13 -3 6 -5 3 -4 -8z"/>
<path d="M5504 4704 c18 -17 37 -18 30 -1 -2 7 -13 13 -24 14 -18 2 -18 0 -6
-13z"/>
<path d="M3800 4700 c0 -5 5 -10 10 -10 6 0 10 5 10 10 0 6 -4 10 -10 10 -5 0
-10 -4 -10 -10z"/>
<path d="M3965 4700 c-3 -5 -1 -10 4 -10 6 0 11 5 11 10 0 6 -2 10 -4 10 -3 0
-8 -4 -11 -10z"/>
<path d="M4843 4703 c9 -2 17 -9 17 -14 0 -5 4 -9 10 -9 5 0 7 7 4 15 -4 8
-16 14 -28 14 -16 -1 -17 -2 -3 -6z"/>
<path d="M5430 4700 c0 -5 -7 -10 -17 -10 -9 0 -14 -3 -10 -6 8 -8 47 5 47 17
0 5 -4 9 -10 9 -5 0 -10 -4 -10 -10z"/>
<path d="M5960 4694 c0 -17 22 -14 28 4 2 7 -3 12 -12 12 -9 0 -16 -7 -16 -16z"/>
<path d="M4770 4692 c0 -5 7 -13 16 -16 10 -4 14 -1 12 6 -5 15 -28 23 -28 10z"/>
<path d="M4946 4692 c-4 -7 -2 -12 3 -12 6 0 11 -8 11 -17 0 -15 2 -16 10 -3
12 19 13 33 1 26 -5 -4 -11 -1 -13 6 -3 9 -6 9 -12 0z"/>
<path d="M5045 4690 c-3 -5 -1 -10 4 -10 6 0 11 5 11 10 0 6 -2 10 -4 10 -3 0
-8 -4 -11 -10z"/>
<path d="M5836 4684 c-8 -22 -4 -25 11 -9 7 8 9 16 4 19 -5 3 -12 -1 -15 -10z"/>
<path d="M5090 4668 c0 -4 4 -8 9 -8 6 0 12 4 15 8 3 5 -1 9 -9 9 -8 0 -15 -4
-15 -9z"/>
<path d="M5147 4673 c-4 -3 -7 -11 -7 -17 0 -6 5 -5 12 2 6 6 9 14 7 17 -3 3
-9 2 -12 -2z"/>
<path d="M5300 4670 c-8 -5 -12 -11 -9 -14 2 -3 11 -1 19 4 8 5 12 11 9 14 -2
3 -11 1 -19 -4z"/>
<path d="M5877 4673 c-2 -4 4 -16 14 -25 13 -12 19 -13 23 -5 5 9 7 9 12 0 8
-18 24 -16 24 1 0 8 8 17 18 19 9 2 0 2 -21 0 -21 -3 -44 0 -51 7 -8 6 -16 7
-19 3z"/>
<path d="M4821 4649 c-13 -22 -8 -24 19 -7 16 11 22 9 33 -6 12 -16 15 -16 20
-4 4 11 -4 18 -27 25 -28 9 -35 7 -45 -8z"/>
<path d="M5000 4661 c0 -5 9 -11 19 -14 14 -3 18 -1 14 9 -6 15 -33 19 -33 5z"/>
<path d="M1422 4647 c-10 -12 -10 -16 -1 -19 8 -3 9 -9 5 -17 -7 -11 -10 -11
-17 0 -8 13 -89 22 -89 10 0 -4 12 -13 26 -20 23 -10 26 -10 20 4 -5 14 -2 14
24 -2 26 -15 32 -15 44 -3 8 9 11 25 7 39 -6 21 -8 22 -19 8z"/>
<path d="M1785 4650 c-3 -5 -1 -10 4 -10 6 0 11 5 11 10 0 6 -2 10 -4 10 -3 0
-8 -4 -11 -10z"/>
<path d="M2827 4653 c-9 -2 -15 -9 -12 -14 9 -14 22 -11 29 6 3 8 4 14 3 14
-1 -1 -10 -3 -20 -6z"/>
<path d="M5360 4650 c0 -5 5 -10 10 -10 6 0 10 5 10 10 0 6 -4 10 -10 10 -5 0
-10 -4 -10 -10z"/>
<path d="M4165 4640 c-3 -5 -1 -10 4 -10 6 0 11 5 11 10 0 6 -2 10 -4 10 -3 0
-8 -4 -11 -10z"/>
<path d="M4260 4639 c0 -5 5 -7 10 -4 6 3 10 8 10 11 0 2 -4 4 -10 4 -5 0 -10
-5 -10 -11z"/>
<path d="M5840 4640 c0 -5 7 -10 15 -10 8 0 15 5 15 10 0 6 -7 10 -15 10 -8 0
-15 -4 -15 -10z"/>
<path d="M4980 4630 c0 -5 5 -10 10 -10 6 0 10 5 10 10 0 6 -4 10 -10 10 -5 0
-10 -4 -10 -10z"/>
<path d="M5085 4630 c-3 -5 1 -10 10 -10 9 0 13 5 10 10 -3 6 -8 10 -10 10 -2
0 -7 -4 -10 -10z"/>
<path d="M5735 4620 c-3 -5 -1 -10 4 -10 6 0 11 5 11 10 0 6 -2 10 -4 10 -3 0
-8 -4 -11 -10z"/>
<path d="M1810 4597 c-12 -21 -12 -21 6 -7 10 8 20 15 22 16 2 1 -1 4 -5 7 -5
3 -15 -4 -23 -16z"/>
<path d="M5180 4610 c0 -5 5 -10 10 -10 6 0 10 5 10 10 0 6 -4 10 -10 10 -5 0
-10 -4 -10 -10z"/>
<path d="M5385 4610 c-3 -5 -1 -10 4 -10 6 0 11 5 11 10 0 6 -2 10 -4 10 -3 0
-8 -4 -11 -10z"/>
<path d="M5880 4609 c0 -5 5 -7 10 -4 6 3 10 8 10 11 0 2 -4 4 -10 4 -5 0 -10
-5 -10 -11z"/>
<path d="M4950 4595 c-8 -9 -8 -15 -2 -15 12 0 26 19 19 26 -2 2 -10 -2 -17
-11z"/>
<path d="M5065 4600 c-3 -5 -1 -10 4 -10 6 0 11 5 11 10 0 6 -2 10 -4 10 -3 0
-8 -4 -11 -10z"/>
<path d="M5798 4597 c16 -7 26 -7 34 1 8 8 2 10 -23 10 -31 -1 -32 -2 -11 -11z"/>
<path d="M1300 4586 c0 -9 5 -16 10 -16 6 0 10 4 10 9 0 6 -4 13 -10 16 -5 3
-10 -1 -10 -9z"/>
<path d="M1225 4570 c-3 -5 -1 -10 4 -10 6 0 11 5 11 10 0 6 -2 10 -4 10 -3 0
-8 -4 -11 -10z"/>
<path d="M1353 4567 c2 -7 11 -11 20 -9 11 2 15 -2 11 -13 -3 -8 -10 -15 -15
-15 -5 0 -9 -5 -9 -12 0 -7 10 -2 22 10 17 17 20 24 10 34 -16 16 -44 19 -39
5z"/>
<path d="M5625 4570 c3 -5 8 -10 11 -10 2 0 4 5 4 10 0 6 -5 10 -11 10 -5 0
-7 -4 -4 -10z"/>
<path d="M5835 4540 c-3 -5 -2 -10 4 -10 5 0 13 5 16 10 3 6 2 10 -4 10 -5 0
-13 -4 -16 -10z"/>
<path d="M5908 4543 c7 -3 16 -2 19 1 4 3 -2 6 -13 5 -11 0 -14 -3 -6 -6z"/>
<path d="M1285 4530 c-3 -5 1 -10 9 -10 8 0 18 5 21 10 3 6 -1 10 -9 10 -8 0
-18 -4 -21 -10z"/>
<path d="M2967 4513 c-4 -3 -7 -11 -7 -17 0 -6 5 -5 12 2 6 6 9 14 7 17 -3 3
-9 2 -12 -2z"/>
<path d="M1379 4503 c0 -5 -2 -16 -4 -26 -2 -9 1 -15 6 -11 5 3 7 10 4 15 -4
5 -1 9 4 9 6 0 11 5 11 10 0 11 -20 14 -21 3z"/>
<path d="M280 4491 c0 -5 5 -13 10 -16 6 -3 10 -2 10 4 0 5 -4 13 -10 16 -5 3
-10 2 -10 -4z"/>
<path d="M1336 4484 c-5 -14 -4 -15 9 -4 17 14 19 20 6 20 -5 0 -12 -7 -15
-16z"/>
<path d="M350 4480 c0 -5 5 -10 10 -10 6 0 10 5 10 10 0 6 -4 10 -10 10 -5 0
-10 -4 -10 -10z"/>
<path d="M1295 4480 c4 -6 11 -8 16 -5 14 9 11 15 -7 15 -8 0 -12 -5 -9 -10z"/>
<path d="M1450 4460 c0 -5 7 -10 16 -10 8 0 12 5 9 10 -3 6 -10 10 -16 10 -5
0 -9 -4 -9 -10z"/>
<path d="M2951 4444 c0 -11 3 -14 6 -6 3 7 2 16 -1 19 -3 4 -6 -2 -5 -13z"/>
<path d="M595 4440 c-3 -5 -1 -10 4 -10 6 0 11 5 11 10 0 6 -2 10 -4 10 -3 0
-8 -4 -11 -10z"/>
<path d="M1327 4424 c-10 -13 -13 -24 -8 -24 10 0 36 39 29 45 -2 2 -11 -8
-21 -21z"/>
<path d="M1403 4436 c4 -14 47 -21 47 -8 0 5 -11 12 -25 15 -16 3 -24 0 -22
-7z"/>
<path d="M1665 4399 c-11 -16 -1 -19 13 -3 7 8 8 14 3 14 -5 0 -13 -5 -16 -11z"/>
<path d="M625 4390 c3 -5 11 -10 16 -10 6 0 7 5 4 10 -3 6 -11 10 -16 10 -6 0
-7 -4 -4 -10z"/>
<path d="M140 4360 c0 -5 5 -10 10 -10 6 0 10 5 10 10 0 6 -4 10 -10 10 -5 0
-10 -4 -10 -10z"/>
<path d="M760 4350 c0 -5 5 -10 11 -10 5 0 7 5 4 10 -3 6 -8 10 -11 10 -2 0
-4 -4 -4 -10z"/>
<path d="M736 4326 c10 -8 21 -12 24 -10 5 6 -21 24 -34 24 -6 0 -1 -6 10 -14z"/>
<path d="M1310 4316 c0 -9 7 -16 16 -16 9 0 14 5 12 12 -6 18 -28 21 -28 4z"/>
<path d="M1175 4310 c3 -5 8 -10 11 -10 2 0 4 5 4 10 0 6 -5 10 -11 10 -5 0
-7 -4 -4 -10z"/>
<path d="M1630 4250 c0 -5 7 -10 16 -10 8 0 12 5 9 10 -3 6 -10 10 -16 10 -5
0 -9 -4 -9 -10z"/>
<path d="M1630 4165 c-7 -9 -8 -15 -2 -15 5 0 12 7 16 15 3 8 4 15 2 15 -2 0
-9 -7 -16 -15z"/>
<path d="M355 4120 c3 -5 8 -10 11 -10 2 0 4 5 4 10 0 6 -5 10 -11 10 -5 0 -7
-4 -4 -10z"/>
<path d="M2265 4099 c-4 -6 -13 -8 -21 -5 -21 8 -17 -18 6 -32 18 -11 20 -10
20 8 0 11 5 20 10 20 6 0 10 5 10 10 0 13 -17 13 -25 -1z"/>
<path d="M535 4090 c-3 -5 -1 -10 4 -10 6 0 11 5 11 10 0 6 -2 10 -4 10 -3 0
-8 -4 -11 -10z"/>
<path d="M565 4090 c-3 -5 -1 -10 4 -10 6 0 11 5 11 10 0 6 -2 10 -4 10 -3 0
-8 -4 -11 -10z"/>
<path d="M596 4084 c-8 -21 -8 -24 3 -24 12 0 22 28 12 35 -5 3 -12 -2 -15
-11z"/>
<path d="M645 4089 c-4 -6 -5 -13 -2 -16 7 -7 27 6 27 18 0 12 -17 12 -25 -2z"/>
<path d="M471 4081 c-8 -6 -9 -11 -3 -15 6 -3 14 -1 17 5 9 14 2 20 -14 10z"/>
<path d="M501 4024 c0 -11 3 -14 6 -6 3 7 2 16 -1 19 -3 4 -6 -2 -5 -13z"/>
<path d="M655 4010 c3 -5 8 -10 11 -10 2 0 4 5 4 10 0 6 -5 10 -11 10 -5 0 -7
-4 -4 -10z"/>
<path d="M934 4005 c-19 -14 -19 -14 2 -15 11 0 25 -5 31 -11 7 -7 12 -4 16
11 4 17 3 19 -9 9 -13 -10 -18 -6 -15 14 1 10 -3 9 -25 -8z"/>
<path d="M720 3965 c7 -8 19 -15 26 -15 8 0 14 -5 14 -12 0 -6 3 -9 6 -6 10
11 -21 48 -40 48 -15 0 -16 -3 -6 -15z"/>
<path d="M617 3959 c7 -7 15 -10 18 -7 3 3 -2 9 -12 12 -14 6 -15 5 -6 -5z"/>
<path d="M929 3943 c-13 -16 -12 -17 4 -4 9 7 17 15 17 17 0 8 -8 3 -21 -13z"/>
<path d="M5870 3950 c0 -5 5 -10 10 -10 6 0 10 5 10 10 0 6 -4 10 -10 10 -5 0
-10 -4 -10 -10z"/>
<path d="M960 3930 c-12 -8 -11 -10 8 -10 12 0 22 5 22 10 0 13 -11 13 -30 0z"/>
<path d="M2208 3928 c-2 -7 7 -24 20 -37 20 -19 24 -20 17 -5 -4 11 -10 27
-12 37 -6 20 -19 22 -25 5z"/>
<path d="M995 3910 c-3 -5 -1 -10 4 -10 6 0 11 5 11 10 0 6 -2 10 -4 10 -3 0
-8 -4 -11 -10z"/>
<path d="M3705 3910 c-3 -5 -1 -10 4 -10 6 0 11 5 11 10 0 6 -2 10 -4 10 -3 0
-8 -4 -11 -10z"/>
<path d="M2206 3875 c4 -9 0 -15 -10 -15 -9 0 -16 -8 -16 -20 0 -11 5 -20 10
-20 6 0 10 7 10 15 0 8 7 15 15 15 17 0 18 2 9 24 -3 9 -10 16 -15 16 -4 0 -6
-7 -3 -15z"/>
<path d="M2165 3783 c5 -38 15 -63 26 -63 6 0 5 -9 -1 -20 -10 -18 -7 -24 12
-21 4 0 3 -10 -2 -23 -6 -17 -5 -28 4 -35 12 -10 21 -34 53 -146 8 -27 18 -58
24 -67 5 -10 9 -25 9 -33 0 -8 5 -15 11 -15 6 0 7 8 2 23 -4 12 -8 45 -7 72 1
29 -2 42 -6 31 -6 -18 -7 -19 -13 -2 -4 10 -2 24 4 32 6 7 8 21 6 31 -17 61
-17 72 -2 67 10 -4 15 0 15 11 0 9 -5 13 -10 10 -7 -4 -8 3 -4 21 5 20 4 25
-5 20 -7 -5 -26 -2 -42 4 l-30 13 26 27 c24 25 25 27 9 58 -8 18 -20 32 -25
32 -12 0 -11 -7 2 -32 10 -18 9 -20 -5 -15 -14 6 -16 3 -10 -15 6 -20 5 -21
-10 -9 -9 7 -16 19 -15 25 3 25 -2 46 -11 46 -5 0 -7 -12 -5 -27z"/>
<path d="M5070 3800 c0 -5 5 -10 11 -10 5 0 7 5 4 10 -3 6 -8 10 -11 10 -2 0
-4 -4 -4 -10z"/>
<path d="M830 3750 c0 -5 5 -10 10 -10 6 0 10 5 10 10 0 6 -4 10 -10 10 -5 0
-10 -4 -10 -10z"/>
<path d="M4745 3609 c-11 -17 1 -21 15 -4 8 9 8 15 2 15 -6 0 -14 -5 -17 -11z"/>
<path d="M4384 3589 c-3 -6 2 -18 12 -27 17 -16 17 -16 5 0 -7 9 -10 22 -6 28
3 5 4 10 1 10 -3 0 -8 -5 -12 -11z"/>
<path d="M4471 3558 c-16 -26 -8 -33 18 -16 24 15 26 24 8 31 -7 3 -19 -4 -26
-15z"/>
<path d="M0 3540 c0 -5 5 -10 11 -10 5 0 7 5 4 10 -3 6 -8 10 -11 10 -2 0 -4
-4 -4 -10z"/>
<path d="M2720 3480 c0 -5 5 -10 11 -10 5 0 7 5 4 10 -3 6 -8 10 -11 10 -2 0
-4 -4 -4 -10z"/>
<path d="M2312 3315 c6 -14 13 -23 16 -21 7 7 -9 46 -18 46 -5 0 -4 -11 2 -25z"/>
<path d="M290 3069 c0 -5 5 -7 10 -4 6 3 10 8 10 11 0 2 -4 4 -10 4 -5 0 -10
-5 -10 -11z"/>
<path d="M1421 3049 c2 -8 -2 -23 -8 -34 -30 -57 19 -187 87 -233 31 -21 42
-23 95 -17 85 9 94 10 101 18 11 11 89 8 121 -4 37 -14 83 -58 83 -80 0 -9 10
-19 23 -22 37 -9 163 -11 177 -2 7 4 34 8 59 7 46 -1 91 19 91 39 0 6 9 24 21
40 12 17 29 52 39 78 l17 49 -54 -38 c-52 -37 -139 -67 -165 -57 -7 2 7 10 32
16 73 19 93 29 134 67 35 32 38 37 22 46 -10 5 -20 7 -23 4 -4 -3 -1 -6 7 -6
10 0 10 -3 0 -15 -7 -8 -16 -12 -22 -9 -5 3 -19 -1 -32 -10 -13 -8 -32 -15
-42 -15 -11 1 -58 -3 -105 -8 -90 -9 -143 -2 -194 27 -24 13 -49 16 -109 13
-108 -5 -145 -10 -160 -22 -16 -13 -87 -10 -78 3 3 5 -3 6 -13 2 -11 -4 -24 0
-34 11 -22 23 -51 97 -51 128 0 13 -5 27 -11 30 -6 4 -9 1 -8 -6z m669 -259
c0 -5 -2 -10 -4 -10 -3 0 -8 5 -11 10 -3 6 -1 10 4 10 6 0 11 -4 11 -10z"/>
<path d="M300 3035 c7 -9 15 -13 17 -11 7 7 -7 26 -19 26 -6 0 -6 -6 2 -15z"/>
<path d="M270 3011 c0 -6 5 -13 10 -16 6 -3 10 1 10 9 0 9 -4 16 -10 16 -5 0
-10 -4 -10 -9z"/>
<path d="M305 2990 c3 -5 8 -10 11 -10 2 0 4 5 4 10 0 6 -5 10 -11 10 -5 0 -7
-4 -4 -10z"/>
<path d="M2487 2893 c-4 -3 -7 -11 -7 -17 0 -6 5 -5 12 2 6 6 9 14 7 17 -3 3
-9 2 -12 -2z"/>
<path d="M2407 2753 c-12 -12 -7 -22 8 -17 8 4 15 10 15 15 0 11 -14 12 -23 2z"/>
<path d="M298 2713 c7 -3 16 -2 19 1 4 3 -2 6 -13 5 -11 0 -14 -3 -6 -6z"/>
<path d="M322 2680 c-7 -11 -8 -20 -3 -20 9 0 24 30 18 36 -1 2 -8 -6 -15 -16z"/>
<path d="M2358 2693 c7 -3 16 -2 19 1 4 3 -2 6 -13 5 -11 0 -14 -3 -6 -6z"/>
<path d="M310 2610 c0 -5 5 -10 11 -10 5 0 7 5 4 10 -3 6 -8 10 -11 10 -2 0
-4 -4 -4 -10z"/>
<path d="M227 2542 c-17 -19 -23 -42 -11 -42 4 0 13 8 20 18 12 15 15 15 23 2
23 -36 40 -55 46 -49 3 4 -1 14 -10 22 -8 9 -15 22 -15 29 0 14 -19 38 -30 38
-4 0 -14 -8 -23 -18z"/>
<path d="M2115 2518 c2 -7 -18 -27 -46 -46 -44 -29 -52 -31 -72 -20 -23 14
-32 15 -140 19 -41 1 -73 -3 -80 -10 -6 -6 -18 -11 -27 -11 -8 0 -27 -6 -41
-14 -15 -7 -37 -13 -50 -12 -20 2 -97 -20 -149 -41 -8 -3 -21 -5 -28 -4 -8 1
-21 -4 -30 -12 -22 -18 -48 -27 -96 -33 -22 -3 -52 -12 -68 -20 -16 -8 -33
-12 -38 -9 -5 3 -23 -1 -40 -10 -17 -9 -34 -13 -39 -10 -5 2 -11 -2 -15 -10
-3 -8 -12 -15 -20 -15 -7 0 -16 -9 -19 -20 -3 -11 -12 -20 -21 -20 -20 0 -21
-14 -1 -30 20 -16 19 -30 -2 -30 -14 0 -14 -2 2 -20 23 -25 26 -25 56 1 19 17
24 18 29 5 3 -8 17 -27 31 -43 29 -33 28 -53 -4 -46 -18 4 -19 3 -7 -7 11 -9
12 -13 3 -17 -19 -7 -16 -19 15 -50 16 -15 27 -33 25 -40 -3 -7 3 -9 16 -6 12
3 28 0 35 -7 8 -6 23 -10 33 -9 10 1 36 -6 58 -16 22 -10 58 -19 80 -20 22 -1
72 -12 110 -24 128 -40 290 -38 379 4 39 19 106 82 106 100 0 7 7 18 15 25 22
19 18 32 -6 19 -15 -7 -24 -8 -32 0 -7 7 -3 13 14 20 33 12 39 21 89 119 42
82 80 122 80 85 1 -17 2 -16 15 1 8 11 15 28 15 37 0 10 4 19 9 21 5 2 11 17
14 35 3 17 7 36 10 40 3 5 2 15 -3 22 -12 20 -32 3 -24 -21 4 -15 2 -19 -7
-16 -14 5 -15 18 -3 74 8 42 -27 82 -78 88 -21 2 -42 7 -48 11 -5 3 -8 0 -5
-7z m72 -104 c1 -5 -2 -16 -7 -24 -12 -20 -33 0 -24 24 7 17 25 17 31 0z m-39
-46 c-4 -29 -38 -38 -38 -10 0 22 8 32 27 32 9 0 13 -8 11 -22z m-93 -48 c3
-6 -1 -13 -10 -16 -19 -8 -30 0 -20 15 8 14 22 14 30 1z m79 -56 c10 -25 -3
-54 -24 -54 -10 0 -21 -7 -24 -16 -5 -14 -10 -12 -31 10 -14 15 -25 29 -25 31
0 5 81 44 91 45 4 0 10 -7 13 -16z m-844 -60 c0 -3 -7 -12 -15 -21 -20 -19
-32 -9 -15 12 12 15 30 20 30 9z m150 -13 c0 -12 -20 -25 -27 -18 -7 7 6 27
18 27 5 0 9 -4 9 -9z m-204 -27 c22 -9 50 -21 64 -26 l25 -10 -25 -10 c-16 -6
-26 -6 -28 1 -2 5 -18 15 -37 21 -18 6 -36 17 -39 25 -7 18 -7 19 40 -1z m132
-3 c3 -8 -1 -12 -9 -9 -7 2 -15 10 -17 17 -3 8 1 12 9 9 7 -2 15 -10 17 -17z
m197 9 c-3 -5 -11 -10 -16 -10 -6 0 -7 5 -4 10 3 6 11 10 16 10 6 0 7 -4 4
-10z m-245 -10 c0 -5 -4 -10 -10 -10 -5 0 -10 5 -10 10 0 6 5 10 10 10 6 0 10
-4 10 -10z m140 -15 c9 -11 10 -19 2 -27 -14 -14 -32 -1 -32 23 0 23 13 25 30
4z m-80 -25 c0 -5 -4 -10 -10 -10 -5 0 -10 5 -10 10 0 6 5 10 10 10 6 0 10 -4
10 -10z m206 -1 c3 -6 2 -15 -3 -20 -13 -13 -43 -1 -43 17 0 16 36 19 46 3z
m-346 -114 c10 -12 10 -15 -3 -15 -8 0 -17 7 -21 15 -3 8 -2 15 3 15 5 0 14
-7 21 -15z m764 -4 c8 -12 -21 -34 -34 -26 -8 5 -8 11 1 21 13 16 25 18 33 5z
m26 -21 c0 -5 -5 -10 -11 -10 -5 0 -7 5 -4 10 3 6 8 10 11 10 2 0 4 -4 4 -10z
m-120 -40 c0 -5 -4 -10 -9 -10 -6 0 -13 5 -16 10 -3 6 1 10 9 10 9 0 16 -4 16
-10z"/>
<path d="M142 2504 c4 -4 3 -13 -4 -21 -6 -7 -7 -17 -3 -21 4 -4 10 -2 12 5 2
7 10 10 18 7 26 -10 24 13 -3 25 -15 7 -24 9 -20 5z"/>
<path d="M240 2490 c0 -5 5 -10 10 -10 6 0 10 5 10 10 0 6 -4 10 -10 10 -5 0
-10 -4 -10 -10z"/>
<path d="M2005 2480 c-3 -5 -1 -10 4 -10 6 0 11 5 11 10 0 6 -2 10 -4 10 -3 0
-8 -4 -11 -10z"/>
<path d="M200 2460 c0 -5 5 -10 10 -10 6 0 10 5 10 10 0 6 -4 10 -10 10 -5 0
-10 -4 -10 -10z"/>
<path d="M92 2445 c-7 -9 -8 -15 -2 -15 5 0 10 -7 10 -15 0 -17 16 -20 25 -6
3 6 -3 14 -12 20 -10 6 -12 11 -5 11 6 0 12 5 12 10 0 14 -13 12 -28 -5z"/>
<path d="M146 2435 c-3 -9 0 -15 9 -15 9 0 12 6 9 15 -4 8 -7 15 -9 15 -2 0
-5 -7 -9 -15z"/>
<path d="M210 2380 c0 -5 5 -10 10 -10 6 0 10 5 10 10 0 6 -4 10 -10 10 -5 0
-10 -4 -10 -10z"/>
<path d="M430 2146 c0 -9 5 -16 10 -16 6 0 10 4 10 9 0 6 -4 13 -10 16 -5 3
-10 -1 -10 -9z"/>
<path d="M715 1990 c3 -5 8 -10 11 -10 2 0 4 5 4 10 0 6 -5 10 -11 10 -5 0 -7
-4 -4 -10z"/>
<path d="M798 1930 c36 -22 42 -24 42 -12 0 8 -48 32 -64 32 -6 0 4 -9 22 -20z"/>
<path d="M705 1920 c3 -5 8 -10 11 -10 2 0 4 5 4 10 0 6 -5 10 -11 10 -5 0 -7
-4 -4 -10z"/>
<path d="M2062 1691 c-29 -43 -52 -82 -52 -86 0 -4 16 7 35 24 20 17 39 31 43
31 4 0 28 18 52 40 24 22 40 40 35 40 -6 0 -3 5 5 10 11 7 6 9 -17 6 -18 -2
-33 1 -33 5 0 23 -20 2 -68 -70z"/>
<path d="M820 1745 c-11 -13 -10 -14 4 -9 9 3 16 10 16 15 0 13 -6 11 -20 -6z"/>
<path d="M3395 1256 c-16 -13 -27 -28 -22 -32 4 -4 18 3 31 15 16 15 29 20 38
15 10 -6 10 -4 -1 9 -16 21 -10 21 -46 -7z"/>
</g>
</svg>
